<svg width="400" height="400" viewBox="0 0 400 400" fill="none" xmlns="http://www.w3.org/2000/svg">
<g clip-path="url(#clip0_101_2674)">
<g clip-path="url(#clip1_101_2674)">
<path d="M-172.419 135.512L398.188 706.12L334.788 769.521L-235.82 198.913L-172.419 135.512Z" fill="#320073"/>
<path d="M299.226 700.285C299.186 700.304 299.154 700.34 299.14 700.386L297.089 707.102L295.038 713.818C295.026 713.859 295.03 713.901 295.047 713.938C295.065 713.974 295.096 714.005 295.136 714.021C303.064 717.205 309.244 718.597 313.627 719.168C318.009 719.739 320.594 719.49 321.33 719.392C321.384 719.384 321.434 719.404 321.469 719.439C321.503 719.473 321.523 719.523 321.516 719.578C321.418 720.313 321.168 722.898 321.739 727.281C322.31 731.663 323.702 737.844 326.887 745.772C326.903 745.812 326.933 745.842 326.97 745.86C327.006 745.877 327.049 745.882 327.09 745.869L333.806 743.818L340.522 741.768C340.568 741.754 340.603 741.722 340.623 741.682C340.642 741.642 340.646 741.594 340.628 741.549C340.333 740.794 339.095 737.564 338.068 733.916C337.04 730.269 336.223 726.205 336.77 723.782C337.355 721.185 338.508 720.146 340.494 718.775C342.48 717.405 345.299 715.705 349.218 711.786C353.44 707.563 355.769 700.741 357.05 694.723C358.332 688.704 358.566 683.488 358.601 682.478C358.602 682.43 358.584 682.386 358.552 682.355C358.521 682.324 358.478 682.305 358.43 682.307C357.419 682.341 352.204 682.576 346.185 683.857C340.166 685.139 333.344 687.467 329.122 691.69C325.203 695.609 323.502 698.428 322.132 700.414C320.762 702.399 319.722 703.552 317.125 704.138C314.702 704.684 310.638 703.867 306.991 702.84C303.344 701.812 300.113 700.575 299.358 700.28C299.313 700.262 299.266 700.265 299.226 700.285ZM235.957 636.879C236.713 637.174 239.943 638.411 243.59 639.439C247.237 640.466 251.302 641.283 253.724 640.737C256.321 640.151 257.361 638.999 258.731 637.013C260.101 635.027 261.802 632.208 265.721 628.289C269.943 624.066 276.765 621.738 282.784 620.456C288.803 619.175 294.019 618.94 295.029 618.906C295.077 618.904 295.12 618.923 295.152 618.954C295.183 618.985 295.202 619.029 295.2 619.077C295.165 620.087 294.931 625.303 293.649 631.322C292.368 637.341 290.039 644.162 285.817 648.385C281.898 652.304 279.079 654.004 277.093 655.374C275.107 656.745 273.955 657.784 273.369 660.381C272.823 662.804 273.64 666.868 274.667 670.515C275.694 674.163 276.932 677.393 277.227 678.148C277.245 678.193 277.241 678.241 277.222 678.281C277.202 678.321 277.167 678.353 277.121 678.367L270.405 680.418L263.689 682.468C263.648 682.481 263.605 682.477 263.569 682.459C263.532 682.442 263.502 682.411 263.486 682.371C260.301 674.443 258.91 668.262 258.338 663.88C257.767 659.497 258.017 656.912 258.115 656.177C258.122 656.123 258.103 656.072 258.068 656.038C258.033 656.003 257.983 655.984 257.929 655.991C257.193 656.089 254.609 656.338 250.226 655.767C245.843 655.196 239.663 653.804 231.735 650.62C231.695 650.604 231.664 650.574 231.647 650.537C231.629 650.501 231.625 650.458 231.637 650.417L233.688 643.701L235.739 636.985C235.753 636.939 235.785 636.903 235.825 636.884C235.865 636.864 235.912 636.861 235.957 636.879ZM172.556 573.478C173.312 573.773 176.542 575.011 180.189 576.038C183.837 577.065 187.901 577.882 190.323 577.336C192.921 576.75 193.96 575.598 195.33 573.612C196.7 571.626 198.401 568.807 202.32 564.888C206.542 560.666 213.364 558.337 219.383 557.056C225.402 555.774 230.618 555.54 231.628 555.505C231.676 555.503 231.719 555.522 231.751 555.553C231.782 555.584 231.801 555.628 231.799 555.676C231.764 556.686 231.53 561.902 230.248 567.921C228.967 573.94 226.638 580.762 222.416 584.984C218.497 588.903 215.678 590.604 213.692 591.974C211.706 593.344 210.554 594.383 209.968 596.981C209.422 599.403 210.239 603.467 211.266 607.115C212.293 610.762 213.531 613.992 213.826 614.747C213.844 614.792 213.84 614.84 213.821 614.88C213.802 614.92 213.766 614.952 213.72 614.966L207.004 617.017L200.288 619.067C200.247 619.08 200.204 619.076 200.168 619.058C200.131 619.041 200.101 619.01 200.085 618.97C196.9 611.042 195.509 604.861 194.937 600.479C194.366 596.096 194.616 593.512 194.714 592.776C194.721 592.722 194.702 592.672 194.667 592.637C194.632 592.602 194.582 592.583 194.528 592.59C193.792 592.688 191.208 592.938 186.825 592.366C182.442 591.795 176.262 590.403 168.334 587.219C168.294 587.203 168.263 587.173 168.246 587.136C168.228 587.1 168.224 587.057 168.236 587.016L170.287 580.3L172.338 573.584C172.352 573.538 172.384 573.502 172.424 573.483C172.464 573.463 172.511 573.46 172.556 573.478ZM109.156 510.077C109.911 510.372 113.141 511.61 116.788 512.637C120.436 513.664 124.5 514.481 126.922 513.935C129.52 513.349 130.559 512.197 131.929 510.211C133.299 508.225 135 505.406 138.919 501.487C143.141 497.265 149.963 494.936 155.982 493.655C162.001 492.373 167.217 492.139 168.227 492.104C168.275 492.102 168.319 492.121 168.35 492.152C168.381 492.184 168.4 492.227 168.398 492.275C168.363 493.285 168.129 498.501 166.847 504.52C165.566 510.539 163.237 517.361 159.015 521.583C155.096 525.502 152.277 527.203 150.291 528.573C148.305 529.943 147.153 530.982 146.567 533.58C146.021 536.002 146.838 540.066 147.865 543.714C148.892 547.361 150.13 550.591 150.425 551.347C150.443 551.392 150.439 551.439 150.42 551.479C150.401 551.519 150.365 551.551 150.319 551.565L143.603 553.616L136.887 555.667C136.846 555.679 136.803 555.675 136.767 555.657C136.73 555.64 136.7 555.609 136.684 555.569C133.5 547.641 132.108 541.461 131.537 537.078C130.965 532.695 131.215 530.111 131.313 529.375C131.32 529.321 131.301 529.271 131.266 529.236C131.231 529.201 131.181 529.182 131.127 529.189C130.391 529.287 127.807 529.537 123.424 528.966C119.042 528.394 112.861 527.003 104.933 523.818C104.893 523.802 104.862 523.772 104.845 523.735C104.827 523.699 104.823 523.656 104.836 523.615L106.886 516.899L108.937 510.183C108.951 510.137 108.983 510.101 109.023 510.082C109.063 510.063 109.11 510.059 109.156 510.077ZM45.7547 446.676C46.5099 446.971 49.7403 448.209 53.3875 449.236C57.0348 450.263 61.0989 451.08 63.5216 450.534C66.1188 449.948 67.1583 448.796 68.5285 446.81C69.8985 444.824 71.5992 442.005 75.5181 438.086C79.7405 433.864 86.5625 431.535 92.5811 430.254C98.6 428.972 103.816 428.738 104.826 428.703C104.874 428.701 104.918 428.72 104.949 428.751C104.98 428.783 104.999 428.826 104.997 428.874C104.962 429.884 104.728 435.1 103.447 441.119C102.165 447.138 99.8366 453.96 95.6141 458.182C91.6952 462.101 88.8761 463.802 86.8903 465.172C84.9044 466.542 83.7518 467.582 83.1663 470.179C82.6199 472.601 83.4369 476.666 84.4642 480.313C85.4915 483.96 86.7292 487.19 87.0244 487.946C87.0422 487.991 87.0386 488.038 87.0191 488.078C86.9998 488.118 86.9643 488.15 86.9182 488.164L80.2023 490.215L73.4862 492.266C73.445 492.278 73.4025 492.274 73.3659 492.256C73.3294 492.239 73.2994 492.208 73.2833 492.168C70.0987 484.24 68.7068 478.06 68.1357 473.677C67.5645 469.294 67.814 466.71 67.9121 465.974C67.9194 465.92 67.8999 465.87 67.8652 465.835C67.8306 465.8 67.7804 465.781 67.7261 465.788C66.9905 465.886 64.4059 466.136 60.0233 465.565C55.6406 464.993 49.46 463.602 41.5321 460.417C41.4921 460.401 41.4615 460.371 41.4438 460.334C41.4265 460.298 41.422 460.255 41.4347 460.214L43.4855 453.498L45.5361 446.782C45.5503 446.736 45.5824 446.701 45.6222 446.681C45.6621 446.662 45.7096 446.658 45.7547 446.676ZM-17.6462 383.275C-16.891 383.57 -13.6606 384.808 -10.0133 385.835C-6.36609 386.863 -2.302 387.68 0.120732 387.133C2.71791 386.548 3.75746 385.395 5.12764 383.409C6.49766 381.423 8.19831 378.604 12.1172 374.685C16.3397 370.463 23.1616 368.134 29.1802 366.853C35.1991 365.571 40.415 365.337 41.4251 365.302C41.4732 365.301 41.5167 365.319 41.548 365.351C41.5793 365.382 41.598 365.425 41.5963 365.473C41.5616 366.484 41.3271 371.699 40.0456 377.718C38.7642 383.737 36.4357 390.559 32.2133 394.781C28.2943 398.7 25.4752 400.401 23.4894 401.771C21.5035 403.141 20.351 404.181 19.7654 406.778C19.219 409.201 20.036 413.265 21.0633 416.912C22.0906 420.559 23.3283 423.79 23.6235 424.545C23.6413 424.59 23.6377 424.637 23.6182 424.677C23.5989 424.717 23.5634 424.749 23.5173 424.763L16.8014 426.814L10.0853 428.865C10.0441 428.877 10.0016 428.873 9.96504 428.856C9.9285 428.838 9.89848 428.807 9.88238 428.767C6.69779 420.839 5.30596 414.659 4.73479 410.276C4.16362 405.894 4.41314 403.309 4.51128 402.573C4.51855 402.519 4.49905 402.469 4.46437 402.434C4.4297 402.4 4.37955 402.38 4.32522 402.387C3.58967 402.485 1.00503 402.735 -3.37762 402.164C-7.76026 401.593 -13.9409 400.201 -21.8688 397.016C-21.9088 397 -21.9394 396.97 -21.957 396.934C-21.9744 396.897 -21.9789 396.854 -21.9662 396.813L-19.9154 390.097L-17.8648 383.381C-17.8505 383.335 -17.8185 383.3 -17.7787 383.28C-17.7388 383.261 -17.6913 383.257 -17.6462 383.275ZM-81.0471 319.874C-80.2919 320.169 -77.0615 321.407 -73.4142 322.434C-69.767 323.462 -65.7029 324.279 -63.2802 323.732C-60.683 323.147 -59.6434 321.994 -58.2733 320.008C-56.9032 318.022 -55.2026 315.203 -51.2837 311.284C-47.0612 307.062 -40.2393 304.734 -34.2207 303.452C-28.2018 302.171 -22.9859 301.936 -21.9758 301.901C-21.9276 301.9 -21.8842 301.918 -21.8529 301.95C-21.8216 301.981 -21.8029 302.024 -21.8046 302.073C-21.8393 303.083 -22.0738 308.299 -23.3552 314.317C-24.6367 320.336 -26.9652 327.158 -31.1876 331.38C-35.1065 335.299 -37.9257 337 -39.9115 338.37C-41.8974 339.74 -43.0499 340.78 -43.6355 343.377C-44.1819 345.8 -43.3649 349.864 -42.3376 353.511C-41.3103 357.158 -40.0726 360.389 -39.7774 361.144C-39.7596 361.189 -39.7632 361.236 -39.7827 361.276C-39.802 361.316 -39.8375 361.348 -39.8836 361.362L-46.5995 363.413L-53.3156 365.464C-53.3567 365.477 -53.3993 365.472 -53.4358 365.455C-53.4724 365.437 -53.5024 365.406 -53.5185 365.366C-56.7031 357.439 -58.0949 351.258 -58.6661 346.875C-59.2373 342.493 -58.9878 339.908 -58.8896 339.172C-58.8823 339.118 -58.9018 339.068 -58.9365 339.033C-58.9712 338.999 -59.0213 338.979 -59.0757 338.986C-59.8112 339.085 -62.3959 339.334 -66.7785 338.763C-71.1612 338.192 -77.3418 336.8 -85.2697 333.615C-85.3096 333.599 -85.3403 333.569 -85.3579 333.533C-85.3753 333.496 -85.3798 333.454 -85.3671 333.412L-83.3163 326.696L-81.2657 319.98C-81.2514 319.934 -81.2194 319.899 -81.1796 319.879C-81.1397 319.86 -81.0922 319.856 -81.0471 319.874ZM-144.448 256.473C-143.693 256.768 -140.462 258.006 -136.815 259.033C-133.168 260.061 -129.104 260.878 -126.681 260.331C-124.084 259.746 -123.044 258.593 -121.674 256.607C-120.304 254.622 -118.603 251.802 -114.685 247.884C-110.462 243.661 -103.64 241.333 -97.6216 240.051C-91.6027 238.77 -86.3868 238.535 -85.3767 238.5C-85.3285 238.499 -85.285 238.518 -85.2538 238.549C-85.2225 238.58 -85.2038 238.624 -85.2055 238.672C-85.2402 239.682 -85.4747 244.898 -86.7561 250.917C-88.0376 256.935 -90.3661 263.757 -94.5885 267.98C-98.5074 271.898 -101.327 273.599 -103.312 274.969C-105.298 276.339 -106.451 277.379 -107.036 279.976C-107.583 282.399 -106.766 286.463 -105.738 290.11C-104.711 293.757 -103.473 296.988 -103.178 297.743C-103.16 297.788 -103.164 297.836 -103.184 297.876C-103.203 297.915 -103.238 297.947 -103.284 297.962L-110 300.012L-116.716 302.063C-116.758 302.076 -116.8 302.071 -116.837 302.054C-116.873 302.036 -116.903 302.006 -116.919 301.966C-120.104 294.038 -121.496 287.857 -122.067 283.474C-122.638 279.092 -122.389 276.507 -122.291 275.772C-122.283 275.717 -122.303 275.667 -122.337 275.632C-122.372 275.598 -122.422 275.578 -122.477 275.586C-123.212 275.684 -125.797 275.933 -130.179 275.362C-134.562 274.791 -140.743 273.399 -148.671 270.214C-148.711 270.198 -148.741 270.168 -148.759 270.132C-148.776 270.095 -148.781 270.053 -148.768 270.011L-146.717 263.295L-144.667 256.579C-144.652 256.533 -144.62 256.498 -144.581 256.479C-144.541 256.459 -144.493 256.455 -144.448 256.473ZM-207.981 193.078C-207.941 193.058 -207.894 193.055 -207.849 193.072C-207.094 193.368 -203.863 194.605 -200.216 195.633C-196.569 196.66 -192.505 197.477 -190.082 196.93C-187.485 196.345 -186.445 195.192 -185.075 193.206C-183.705 191.221 -182.004 188.402 -178.085 184.483C-173.863 180.26 -167.041 177.932 -161.022 176.65C-155.004 175.369 -149.788 175.134 -148.778 175.1C-148.729 175.098 -148.686 175.117 -148.655 175.148C-148.623 175.179 -148.605 175.223 -148.606 175.271C-148.641 176.281 -148.876 181.497 -150.157 187.516C-151.439 193.534 -153.767 200.356 -157.989 204.579C-161.908 208.498 -164.727 210.198 -166.713 211.568C-168.699 212.938 -169.852 213.978 -170.437 216.575C-170.984 218.998 -170.167 223.062 -169.139 226.709C-168.112 230.356 -166.874 233.587 -166.579 234.342C-166.561 234.387 -166.565 234.435 -166.584 234.475C-166.604 234.514 -166.639 234.546 -166.685 234.561L-173.401 236.611L-180.117 238.662C-180.159 238.675 -180.201 238.67 -180.238 238.653C-180.274 238.635 -180.304 238.605 -180.32 238.565C-183.505 230.637 -184.897 224.456 -185.468 220.074C-186.039 215.691 -185.79 213.106 -185.691 212.371C-185.684 212.316 -185.704 212.266 -185.738 212.232C-185.773 212.197 -185.823 212.177 -185.877 212.185C-186.613 212.283 -189.198 212.532 -193.58 211.961C-197.963 211.39 -204.144 209.998 -212.071 206.813C-212.111 206.797 -212.142 206.767 -212.16 206.731C-212.177 206.694 -212.182 206.652 -212.169 206.611L-210.118 199.894L-208.067 193.179C-208.053 193.132 -208.021 193.097 -207.981 193.078Z" fill="#FFD200"/>
<path d="M-109.019 72.1111L461.589 642.719L398.188 706.12L-172.419 135.512L-109.019 72.1111Z" fill="#0096D2"/>
<path d="M382.851 619.695L382.052 611.39C382.045 611.316 382.086 611.256 382.142 611.227C382.199 611.198 382.271 611.2 382.328 611.25L388.577 616.777L394.825 622.304C394.864 622.338 394.914 622.351 394.961 622.343C395.008 622.336 395.052 622.309 395.078 622.264L399.313 615.077L403.548 607.889C403.587 607.824 403.655 607.8 403.717 607.81C403.78 607.819 403.837 607.864 403.854 607.937L405.661 616.082L407.467 624.226C407.479 624.277 407.512 624.316 407.554 624.338C407.596 624.359 407.648 624.363 407.696 624.342L415.347 621.017L422.998 617.692C423.067 617.662 423.136 617.682 423.181 617.726C423.226 617.771 423.246 617.841 423.216 617.91L419.891 625.561L416.565 633.212C416.544 633.26 416.548 633.311 416.57 633.353C416.591 633.396 416.631 633.429 416.682 633.44L424.826 635.247L432.97 637.054C433.044 637.07 433.088 637.127 433.098 637.19C433.108 637.253 433.083 637.321 433.018 637.359L425.831 641.594L418.644 645.829C418.599 645.856 418.572 645.899 418.564 645.946C418.557 645.993 418.569 646.043 418.604 646.082L424.131 652.331L429.658 658.58C429.707 658.637 429.71 658.709 429.681 658.765C429.652 658.822 429.592 658.863 429.517 658.855L421.213 658.057L412.909 657.259C412.857 657.253 412.809 657.273 412.776 657.306C412.742 657.34 412.723 657.388 412.728 657.44L413.526 665.744L414.325 674.048C414.332 674.123 414.291 674.183 414.235 674.212C414.178 674.24 414.106 674.238 414.049 674.188L407.8 668.661L401.552 663.134C401.513 663.1 401.463 663.087 401.416 663.095C401.369 663.102 401.325 663.13 401.299 663.174L397.064 670.362L392.829 677.549C392.79 677.614 392.722 677.638 392.66 677.629C392.597 677.619 392.54 677.574 392.523 677.501L390.716 669.356L388.91 661.212C388.898 661.161 388.865 661.122 388.823 661.1C388.781 661.079 388.729 661.075 388.681 661.096L381.03 664.421L373.379 667.747C373.31 667.777 373.241 667.757 373.196 667.712C373.151 667.667 373.131 667.597 373.161 667.528L376.486 659.877L379.812 652.226C379.833 652.178 379.829 652.127 379.807 652.085C379.786 652.043 379.746 652.009 379.695 651.998L371.551 650.191L363.407 648.384C363.333 648.368 363.289 648.311 363.279 648.248C363.269 648.186 363.294 648.117 363.359 648.079L370.546 643.844L377.733 639.609C377.778 639.583 377.805 639.539 377.813 639.492C377.82 639.445 377.808 639.395 377.773 639.356L372.246 633.107L366.719 626.858C366.67 626.802 366.667 626.729 366.696 626.673C366.725 626.616 366.785 626.576 366.86 626.583L375.164 627.381L383.468 628.18C383.52 628.185 383.568 628.165 383.601 628.132C383.635 628.098 383.654 628.05 383.649 627.999L382.851 619.695ZM386.416 637.939C385.796 639.468 385.486 641.094 385.486 642.719C385.486 644.345 385.796 645.97 386.416 647.499C387.036 649.028 387.967 650.461 389.207 651.701C390.447 652.941 391.88 653.871 393.409 654.491C394.938 655.111 396.563 655.421 398.189 655.422C399.814 655.421 401.439 655.111 402.968 654.491C404.497 653.871 405.93 652.941 407.171 651.701C408.411 650.461 409.341 649.028 409.961 647.499C410.581 645.97 410.891 644.345 410.891 642.719C410.891 641.094 410.581 639.468 409.961 637.939C409.341 636.41 408.411 634.977 407.17 633.737C405.93 632.497 404.497 631.567 402.968 630.947C401.439 630.327 399.814 630.017 398.189 630.017C396.563 630.017 394.938 630.327 393.409 630.947C391.88 631.567 390.447 632.497 389.207 633.737C387.966 634.977 387.036 636.41 386.416 637.939ZM319.45 556.294L318.651 547.99C318.644 547.915 318.685 547.855 318.741 547.826C318.798 547.797 318.87 547.8 318.927 547.849L325.176 553.376L331.424 558.903C331.464 558.938 331.514 558.95 331.56 558.942C331.607 558.935 331.651 558.908 331.677 558.863L335.913 551.676L340.148 544.488C340.186 544.423 340.254 544.399 340.317 544.409C340.379 544.418 340.437 544.463 340.453 544.537L342.26 552.681L344.066 560.825C344.078 560.876 344.111 560.916 344.153 560.937C344.196 560.959 344.247 560.962 344.295 560.941L351.946 557.616L359.597 554.291C359.666 554.261 359.736 554.281 359.78 554.326C359.825 554.37 359.845 554.44 359.815 554.509L356.49 562.16L353.164 569.811C353.144 569.859 353.147 569.91 353.169 569.953C353.19 569.995 353.23 570.028 353.281 570.039L361.425 571.846L369.569 573.653C369.643 573.669 369.687 573.727 369.697 573.789C369.707 573.852 369.682 573.92 369.618 573.958L362.43 578.193L355.243 582.428C355.198 582.455 355.171 582.498 355.163 582.545C355.156 582.592 355.168 582.642 355.203 582.681L360.73 588.93L366.257 595.179C366.306 595.236 366.309 595.308 366.28 595.365C366.251 595.421 366.191 595.462 366.116 595.454L357.812 594.656L349.508 593.858C349.456 593.853 349.409 593.872 349.375 593.906C349.341 593.939 349.322 593.987 349.327 594.039L350.125 602.343L350.924 610.647C350.931 610.722 350.89 610.782 350.834 610.811C350.777 610.839 350.705 610.837 350.649 610.787L344.4 605.26L338.151 599.733C338.112 599.699 338.062 599.686 338.015 599.694C337.968 599.701 337.924 599.729 337.898 599.774L333.663 606.961L329.428 614.148C329.389 614.213 329.321 614.238 329.259 614.228C329.196 614.218 329.139 614.173 329.122 614.1L327.316 605.955L325.509 597.811C325.497 597.76 325.464 597.721 325.422 597.699C325.38 597.678 325.328 597.674 325.28 597.695L317.629 601.02L309.978 604.346C309.909 604.376 309.84 604.356 309.795 604.311C309.75 604.266 309.73 604.197 309.76 604.128L313.086 596.476L316.411 588.825C316.432 588.778 316.428 588.726 316.406 588.684C316.385 588.642 316.345 588.608 316.295 588.597L308.15 586.79L300.006 584.983C299.932 584.967 299.888 584.91 299.878 584.847C299.868 584.785 299.893 584.716 299.958 584.678L307.145 580.443L314.332 576.208C314.377 576.182 314.405 576.138 314.412 576.091C314.419 576.044 314.407 575.994 314.372 575.955L308.846 569.706L303.319 563.457C303.269 563.401 303.266 563.328 303.295 563.272C303.324 563.215 303.384 563.175 303.459 563.182L311.763 563.98L320.067 564.779C320.119 564.784 320.167 564.765 320.2 564.731C320.234 564.697 320.253 564.65 320.248 564.598L319.45 556.294ZM323.015 574.538C322.395 576.067 322.085 577.693 322.085 579.318C322.085 580.944 322.395 582.569 323.015 584.098C323.635 585.627 324.566 587.06 325.806 588.3C327.046 589.54 328.479 590.471 330.008 591.09C331.537 591.711 333.162 592.021 334.788 592.021C336.413 592.021 338.038 591.711 339.567 591.09C341.097 590.471 342.529 589.54 343.77 588.3C345.01 587.06 345.94 585.627 346.56 584.098C347.18 582.569 347.49 580.944 347.49 579.318C347.49 577.693 347.18 576.067 346.56 574.538C345.94 573.009 345.01 571.577 343.769 570.336C342.529 569.096 341.097 568.166 339.567 567.546C338.038 566.926 336.413 566.616 334.788 566.616C333.162 566.616 331.537 566.926 330.008 567.546C328.479 568.166 327.046 569.096 325.806 570.336C324.565 571.576 323.635 573.009 323.015 574.538ZM256.049 492.893L255.25 484.589C255.243 484.514 255.284 484.454 255.34 484.425C255.397 484.396 255.469 484.399 255.526 484.448L261.775 489.975L268.024 495.502C268.063 495.537 268.113 495.549 268.16 495.542C268.206 495.534 268.25 495.507 268.277 495.462L272.512 488.275L276.747 481.087C276.785 481.023 276.853 480.998 276.916 481.008C276.978 481.018 277.036 481.062 277.052 481.136L278.859 489.28L280.666 497.424C280.677 497.475 280.71 497.515 280.752 497.536C280.795 497.558 280.846 497.561 280.894 497.541L288.545 494.215L296.196 490.89C296.265 490.86 296.335 490.88 296.379 490.925C296.424 490.97 296.444 491.039 296.414 491.108L293.089 498.759L289.764 506.41C289.743 506.458 289.746 506.509 289.768 506.552C289.789 506.594 289.829 506.627 289.88 506.638L298.024 508.445L306.168 510.252C306.242 510.268 306.286 510.326 306.296 510.388C306.306 510.451 306.282 510.519 306.217 510.557L299.029 514.792L291.842 519.027C291.797 519.054 291.77 519.098 291.762 519.144C291.755 519.191 291.767 519.241 291.802 519.281L297.329 525.529L302.856 531.778C302.905 531.835 302.908 531.907 302.879 531.964C302.85 532.02 302.79 532.061 302.715 532.054L294.411 531.255L286.107 530.457C286.055 530.452 286.008 530.471 285.974 530.505C285.94 530.538 285.921 530.586 285.926 530.638L286.725 538.942L287.523 547.246C287.53 547.321 287.49 547.381 287.433 547.41C287.377 547.439 287.304 547.436 287.248 547.386L280.999 541.859L274.75 536.333C274.711 536.298 274.661 536.285 274.614 536.293C274.567 536.3 274.523 536.328 274.497 536.373L270.262 543.56L266.027 550.747C265.989 550.812 265.92 550.837 265.858 550.827C265.795 550.817 265.738 550.772 265.722 550.699L263.915 542.555L262.108 534.41C262.097 534.359 262.063 534.32 262.021 534.298C261.979 534.277 261.927 534.273 261.88 534.294L254.229 537.619L246.578 540.945C246.509 540.975 246.439 540.955 246.394 540.91C246.349 540.865 246.329 540.796 246.359 540.727L249.685 533.076L253.01 525.425C253.031 525.377 253.027 525.325 253.006 525.283C252.984 525.241 252.945 525.208 252.894 525.196L244.75 523.389L236.605 521.583C236.532 521.566 236.487 521.509 236.477 521.446C236.467 521.384 236.492 521.316 236.557 521.277L243.744 517.042L250.931 512.807C250.976 512.781 251.004 512.737 251.011 512.69C251.019 512.643 251.006 512.593 250.972 512.554L245.445 506.305L239.918 500.056C239.868 500 239.866 499.928 239.894 499.871C239.923 499.815 239.983 499.774 240.058 499.781L248.362 500.579L256.666 501.378C256.718 501.383 256.766 501.364 256.799 501.33C256.833 501.296 256.852 501.249 256.847 501.197L256.049 492.893ZM259.615 511.138C258.994 512.667 258.684 514.292 258.684 515.917C258.684 517.543 258.994 519.168 259.615 520.697C260.234 522.226 261.165 523.659 262.405 524.899C263.645 526.139 265.078 527.07 266.607 527.69C268.136 528.31 269.761 528.62 271.387 528.62C273.012 528.62 274.638 528.31 276.167 527.69C277.696 527.07 279.129 526.14 280.369 524.899C281.609 523.659 282.539 522.226 283.159 520.697C283.779 519.168 284.089 517.543 284.089 515.917C284.089 514.292 283.779 512.667 283.159 511.138C282.539 509.608 281.609 508.176 280.369 506.936C279.128 505.695 277.696 504.765 276.167 504.145C274.638 503.525 273.012 503.215 271.387 503.215C269.761 503.215 268.136 503.525 266.607 504.145C265.078 504.765 263.645 505.695 262.405 506.935C261.165 508.176 260.234 509.608 259.615 511.138ZM192.648 429.492L191.85 421.188C191.842 421.113 191.883 421.053 191.94 421.024C191.996 420.995 192.068 420.998 192.125 421.047L198.374 426.574L204.623 432.101C204.662 432.136 204.712 432.148 204.759 432.141C204.806 432.133 204.849 432.106 204.876 432.061L209.111 424.874L213.346 417.687C213.384 417.622 213.452 417.597 213.515 417.607C213.578 417.617 213.635 417.661 213.651 417.735L215.458 425.879L217.265 434.023C217.276 434.074 217.309 434.114 217.352 434.135C217.394 434.157 217.445 434.161 217.493 434.14L225.144 430.814L232.795 427.489C232.864 427.459 232.934 427.479 232.979 427.524C233.023 427.569 233.044 427.638 233.014 427.707L229.688 435.358L226.363 443.009C226.342 443.057 226.345 443.108 226.367 443.151C226.388 443.193 226.428 443.226 226.479 443.238L234.623 445.044L242.767 446.851C242.841 446.868 242.886 446.925 242.895 446.987C242.905 447.05 242.881 447.118 242.816 447.156L235.628 451.391L228.441 455.627C228.396 455.653 228.369 455.697 228.362 455.744C228.354 455.791 228.367 455.841 228.401 455.88L233.928 462.128L239.455 468.377C239.505 468.434 239.507 468.506 239.478 468.563C239.449 468.619 239.389 468.66 239.314 468.653L231.01 467.854L222.706 467.056C222.655 467.051 222.607 467.07 222.573 467.104C222.54 467.137 222.52 467.185 222.525 467.237L223.324 475.541L224.122 483.845C224.129 483.92 224.089 483.98 224.032 484.009C223.976 484.038 223.903 484.035 223.847 483.985L217.598 478.459L211.349 472.932C211.31 472.897 211.26 472.885 211.213 472.892C211.166 472.899 211.122 472.927 211.096 472.972L206.861 480.159L202.626 487.346C202.588 487.411 202.519 487.436 202.457 487.426C202.394 487.416 202.337 487.372 202.321 487.298L200.514 479.154L198.707 471.01C198.696 470.959 198.662 470.919 198.62 470.898C198.578 470.876 198.526 470.872 198.479 470.893L190.828 474.219L183.177 477.544C183.108 477.574 183.038 477.554 182.993 477.509C182.948 477.464 182.928 477.395 182.958 477.326L186.284 469.675L189.609 462.024C189.63 461.976 189.626 461.924 189.605 461.882C189.583 461.84 189.544 461.807 189.493 461.795L181.349 459.988L173.204 458.182C173.131 458.165 173.086 458.108 173.076 458.045C173.066 457.983 173.091 457.915 173.156 457.876L180.343 453.641L187.531 449.406C187.575 449.38 187.603 449.336 187.61 449.289C187.618 449.242 187.605 449.192 187.571 449.153L182.044 442.904L176.517 436.656C176.467 436.599 176.465 436.527 176.493 436.47C176.522 436.414 176.582 436.373 176.657 436.38L184.961 437.179L193.265 437.977C193.317 437.982 193.365 437.963 193.399 437.929C193.432 437.896 193.451 437.848 193.446 437.796L192.648 429.492ZM196.214 447.737C195.594 449.266 195.284 450.891 195.283 452.516C195.284 454.142 195.594 455.767 196.214 457.296C196.834 458.825 197.764 460.258 199.004 461.498C200.244 462.738 201.677 463.669 203.206 464.289C204.735 464.909 206.36 465.219 207.986 465.219C209.611 465.219 211.237 464.909 212.766 464.289C214.295 463.669 215.728 462.739 216.968 461.498C218.208 460.258 219.138 458.825 219.758 457.296C220.378 455.767 220.688 454.142 220.688 452.516C220.688 450.891 220.378 449.266 219.758 447.737C219.138 446.207 218.208 444.775 216.968 443.535C215.728 442.294 214.295 441.364 212.766 440.744C211.237 440.124 209.611 439.814 207.986 439.814C206.36 439.814 204.735 440.124 203.206 440.744C201.677 441.364 200.244 442.294 199.004 443.534C197.764 444.775 196.834 446.207 196.214 447.737ZM129.247 366.091L128.449 357.787C128.442 357.712 128.482 357.652 128.539 357.623C128.595 357.594 128.668 357.597 128.724 357.647L134.973 363.174L141.222 368.7C141.261 368.735 141.311 368.747 141.358 368.74C141.405 368.733 141.448 368.705 141.475 368.66L145.71 361.473L149.945 354.286C149.983 354.221 150.051 354.196 150.114 354.206C150.177 354.216 150.234 354.26 150.25 354.334L152.057 362.478L153.864 370.623C153.875 370.673 153.908 370.713 153.951 370.734C153.993 370.756 154.044 370.76 154.092 370.739L161.743 367.413L169.394 364.088C169.463 364.058 169.533 364.078 169.578 364.123C169.623 364.168 169.643 364.237 169.613 364.306L166.287 371.957L162.962 379.608C162.941 379.656 162.945 379.708 162.966 379.75C162.988 379.792 163.027 379.825 163.078 379.837L171.222 381.644L179.367 383.45C179.44 383.467 179.485 383.524 179.494 383.587C179.504 383.649 179.48 383.717 179.415 383.756L172.227 387.991L165.04 392.226C164.995 392.252 164.968 392.296 164.961 392.343C164.953 392.39 164.966 392.44 165 392.479L170.527 398.728L176.054 404.976C176.104 405.033 176.106 405.105 176.078 405.162C176.049 405.218 175.989 405.259 175.914 405.252L167.61 404.453L159.306 403.655C159.254 403.65 159.206 403.669 159.172 403.703C159.139 403.736 159.119 403.784 159.124 403.836L159.923 412.14L160.721 420.444C160.728 420.519 160.688 420.579 160.631 420.608C160.575 420.637 160.502 420.634 160.446 420.585L154.197 415.058L147.948 409.531C147.909 409.496 147.859 409.484 147.812 409.491C147.765 409.499 147.721 409.526 147.695 409.571L143.46 416.758L139.225 423.945C139.187 424.01 139.118 424.035 139.056 424.025C138.993 424.015 138.936 423.971 138.92 423.897L137.113 415.753L135.306 407.609C135.295 407.558 135.262 407.518 135.219 407.497C135.177 407.475 135.126 407.471 135.078 407.492L127.427 410.818L119.776 414.143C119.707 414.173 119.637 414.153 119.592 414.108C119.547 414.064 119.527 413.994 119.557 413.925L122.883 406.274L126.208 398.623C126.229 398.575 126.225 398.524 126.204 398.481C126.182 398.439 126.143 398.406 126.092 398.394L117.948 396.588L109.803 394.781C109.73 394.765 109.685 394.707 109.675 394.645C109.666 394.582 109.69 394.514 109.755 394.476L116.942 390.241L124.13 386.005C124.175 385.979 124.202 385.935 124.209 385.888C124.217 385.842 124.204 385.792 124.17 385.752L118.643 379.504L113.116 373.255C113.066 373.198 113.064 373.126 113.092 373.069C113.121 373.013 113.181 372.972 113.256 372.979L121.56 373.778L129.864 374.576C129.916 374.581 129.964 374.562 129.998 374.528C130.031 374.495 130.051 374.447 130.045 374.395L129.247 366.091ZM132.813 384.336C132.193 385.865 131.883 387.49 131.882 389.116C131.883 390.741 132.193 392.366 132.813 393.895C133.433 395.425 134.363 396.857 135.603 398.097C136.843 399.338 138.276 400.268 139.805 400.888C141.334 401.508 142.96 401.818 144.585 401.818C146.21 401.818 147.836 401.508 149.365 400.888C150.894 400.268 152.327 399.338 153.567 398.098C154.807 396.857 155.737 395.425 156.357 393.895C156.977 392.366 157.287 390.741 157.287 389.116C157.287 387.49 156.977 385.865 156.357 384.336C155.737 382.807 154.807 381.374 153.567 380.134C152.327 378.894 150.894 377.963 149.365 377.343C147.836 376.723 146.21 376.413 144.585 376.413C142.96 376.413 141.334 376.723 139.805 377.343C138.276 377.963 136.843 378.893 135.603 380.134C134.363 381.374 133.433 382.807 132.813 384.336ZM65.8462 302.69L65.0478 294.386C65.0407 294.311 65.0812 294.251 65.1377 294.222C65.1942 294.193 65.2666 294.196 65.3231 294.246L71.5721 299.773L77.8208 305.299C77.86 305.334 77.91 305.347 77.9569 305.339C78.0038 305.332 78.0476 305.304 78.0739 305.259L82.309 298.072L86.544 290.885C86.5822 290.82 86.6505 290.795 86.713 290.805C86.7757 290.815 86.833 290.86 86.8493 290.933L88.6561 299.077L90.4629 307.222C90.4742 307.273 90.5075 307.312 90.5497 307.334C90.592 307.355 90.6434 307.359 90.6912 307.338L98.3422 304.013L105.993 300.687C106.062 300.657 106.132 300.677 106.177 300.722C106.222 300.767 106.242 300.836 106.212 300.906L102.886 308.556L99.5608 316.207C99.54 316.255 99.5437 316.307 99.5652 316.349C99.5867 316.391 99.6262 316.424 99.6771 316.436L107.821 318.243L115.966 320.049C116.039 320.066 116.084 320.123 116.094 320.186C116.103 320.248 116.079 320.316 116.014 320.355L108.827 324.59L101.639 328.825C101.594 328.851 101.567 328.895 101.56 328.942C101.552 328.989 101.565 329.039 101.599 329.078L107.126 335.327L112.653 341.576C112.703 341.632 112.705 341.705 112.677 341.761C112.648 341.818 112.588 341.858 112.513 341.851L104.209 341.053L95.9046 340.254C95.8528 340.249 95.8049 340.268 95.7714 340.302C95.7378 340.336 95.7184 340.383 95.7235 340.435L96.5219 348.739L97.3203 357.043C97.3275 357.118 97.2869 357.178 97.2304 357.207C97.1739 357.236 97.1015 357.233 97.045 357.184L90.796 351.657L84.5473 346.13C84.5081 346.095 84.4581 346.083 84.4112 346.09C84.3643 346.098 84.3205 346.125 84.2942 346.17L80.0591 353.357L75.8241 360.545C75.7859 360.609 75.7176 360.634 75.6551 360.624C75.5924 360.614 75.5351 360.57 75.5188 360.496L73.712 352.352L71.9052 344.208C71.8939 344.157 71.8606 344.117 71.8183 344.096C71.7761 344.074 71.7247 344.071 71.6769 344.091L64.0259 347.417L56.3749 350.742C56.3059 350.772 56.2362 350.752 56.1913 350.707C56.1466 350.663 56.1265 350.593 56.1565 350.524L59.4819 342.873L62.8072 335.222C62.8281 335.174 62.8244 335.123 62.8029 335.08C62.7814 335.038 62.7419 335.005 62.691 334.994L54.5469 333.187L46.4024 331.38C46.3289 331.364 46.2843 331.306 46.2746 331.244C46.2647 331.181 46.2893 331.113 46.3541 331.075L53.5415 326.84L60.7287 322.605C60.7736 322.578 60.801 322.534 60.8083 322.487C60.8159 322.441 60.8034 322.391 60.7688 322.351L55.242 316.103L49.715 309.854C49.6653 309.797 49.6628 309.725 49.6915 309.668C49.7204 309.612 49.7805 309.571 49.8554 309.578L58.1594 310.377L66.4635 311.175C66.5153 311.18 66.5631 311.161 66.5967 311.127C66.6303 311.094 66.6497 311.046 66.6446 310.994L65.8462 302.69ZM69.4119 320.935C68.7918 322.464 68.4817 324.089 68.4816 325.715C68.4817 327.34 68.7918 328.966 69.4119 330.494C70.0318 332.024 70.962 333.456 72.2022 334.697C73.4424 335.937 74.8751 336.867 76.4042 337.487C77.9332 338.107 79.5586 338.417 81.184 338.417C82.8095 338.417 84.4349 338.107 85.9639 337.487C87.493 336.867 88.9259 335.937 90.166 334.697C91.4062 333.457 92.3363 332.024 92.9562 330.494C93.5763 328.966 93.8864 327.34 93.8865 325.715C93.8864 324.089 93.5763 322.464 92.9562 320.935C92.3363 319.406 91.406 317.973 90.1659 316.733C88.9257 315.493 87.493 314.562 85.9639 313.942C84.4349 313.322 82.8095 313.012 81.184 313.012C79.5586 313.012 77.9332 313.322 76.4042 313.942C74.8751 314.562 73.4422 315.493 72.202 316.733C70.9619 317.973 70.0318 319.406 69.4119 320.935ZM2.44528 239.289L1.64689 230.985C1.63977 230.91 1.68032 230.85 1.73682 230.821C1.79332 230.793 1.86576 230.795 1.92225 230.845L8.17117 236.372L14.4199 241.899C14.4591 241.933 14.5091 241.946 14.556 241.938C14.6029 241.931 14.6467 241.903 14.673 241.858L18.9081 234.671L23.1431 227.484C23.1814 227.419 23.2496 227.394 23.3122 227.404C23.3748 227.414 23.4321 227.459 23.4484 227.532L25.2552 235.677L27.062 243.821C27.0733 243.872 27.1066 243.911 27.1489 243.933C27.1911 243.954 27.2425 243.958 27.2903 243.937L34.9413 240.612L42.5925 237.286C42.6615 237.256 42.7311 237.276 42.7759 237.321C42.8208 237.366 42.8409 237.436 42.8109 237.505L39.4853 245.156L36.16 252.807C36.1391 252.854 36.1428 252.906 36.1643 252.948C36.1858 252.99 36.2253 253.024 36.2762 253.035L44.4203 254.842L52.5648 256.649C52.6383 256.665 52.6829 256.722 52.6926 256.785C52.7026 256.847 52.6779 256.916 52.6131 256.954L45.4257 261.189L38.2385 265.424C38.1936 265.45 38.1662 265.494 38.1589 265.541C38.1513 265.588 38.1638 265.638 38.1984 265.677L43.7252 271.926L49.2522 278.175C49.3019 278.231 49.3044 278.304 49.2757 278.36C49.2468 278.417 49.1867 278.457 49.1118 278.45L40.8078 277.652L32.5037 276.853C32.4519 276.848 32.4041 276.868 32.3705 276.901C32.3369 276.935 32.3175 276.983 32.3226 277.034L33.121 285.338L33.9194 293.642C33.9265 293.717 33.886 293.777 33.8295 293.806C33.773 293.835 33.7006 293.832 33.6441 293.783L27.3951 288.256L21.1464 282.729C21.1072 282.694 21.0572 282.682 21.0103 282.69C20.9634 282.697 20.9196 282.724 20.8933 282.769L16.6582 289.956L12.4232 297.144C12.385 297.209 12.3167 297.233 12.2542 297.223C12.1915 297.214 12.1342 297.169 12.118 297.095L10.3111 288.951L8.50429 280.807C8.49299 280.756 8.45971 280.716 8.41745 280.695C8.37519 280.673 8.32381 280.67 8.27598 280.691L0.624997 284.016L-7.02598 287.341C-7.09502 287.372 -7.16468 287.351 -7.20957 287.307C-7.2543 287.262 -7.27442 287.192 -7.24439 287.123L-3.91894 279.472L-0.593645 271.821C-0.572748 271.773 -0.576464 271.722 -0.597979 271.679C-0.619494 271.637 -0.658964 271.604 -0.70989 271.593L-8.85402 269.786L-16.9985 267.979C-17.072 267.963 -17.1166 267.905 -17.1263 267.843C-17.1362 267.78 -17.1116 267.712 -17.0468 267.674L-9.85938 263.439L-2.67214 259.204C-2.62725 259.177 -2.59985 259.134 -2.59258 259.087C-2.58499 259.04 -2.59753 258.99 -2.63205 258.951L-8.15889 252.702L-13.6859 246.453C-13.7356 246.396 -13.738 246.324 -13.7094 246.267C-13.6805 246.211 -13.6204 246.17 -13.5455 246.178L-5.24146 246.976L3.06257 247.774C3.11443 247.779 3.16226 247.76 3.19585 247.726C3.22943 247.693 3.24879 247.645 3.24368 247.593L2.44528 239.289ZM6.01096 257.534C5.39088 259.063 5.08085 260.688 5.08069 262.314C5.08084 263.939 5.39089 265.565 6.01096 267.094C6.63089 268.623 7.56116 270.055 8.80132 271.296C10.0415 272.536 11.4742 273.466 13.0033 274.086C14.5323 274.706 16.1577 275.016 17.7832 275.016C19.4086 275.016 21.034 274.706 22.563 274.086C24.0921 273.466 25.525 272.536 26.7652 271.296C28.0053 270.056 28.9354 268.623 29.5554 267.094C30.1754 265.565 30.4855 263.939 30.4856 262.314C30.4855 260.688 30.1754 259.063 29.5554 257.534C28.9354 256.005 28.0052 254.572 26.765 253.332C25.5248 252.092 24.0921 251.162 22.563 250.542C21.034 249.922 19.4086 249.611 17.7832 249.611C16.1577 249.611 14.5323 249.922 13.0033 250.542C11.4742 251.162 10.0413 252.092 8.80116 253.332C7.561 254.572 6.63089 256.005 6.01096 257.534ZM-60.9556 175.888L-61.754 167.584C-61.7611 167.509 -61.7206 167.449 -61.6641 167.42C-61.6076 167.392 -61.5351 167.394 -61.4786 167.444L-55.2297 172.971L-48.981 178.498C-48.9418 178.532 -48.8918 178.545 -48.8449 178.537C-48.798 178.53 -48.7542 178.502 -48.7279 178.458L-44.4927 171.27L-40.2578 164.083C-40.2195 164.018 -40.1513 163.993 -40.0887 164.003C-40.026 164.013 -39.9688 164.058 -39.9525 164.131L-38.1457 172.276L-36.3389 180.42C-36.3276 180.471 -36.2943 180.51 -36.252 180.532C-36.2098 180.553 -36.1584 180.557 -36.1106 180.536L-28.4596 177.211L-20.8084 173.885C-20.7394 173.855 -20.6697 173.875 -20.625 173.92C-20.5801 173.965 -20.56 174.035 -20.59 174.104L-23.9156 181.755L-27.2409 189.406C-27.2618 189.454 -27.2581 189.505 -27.2366 189.547C-27.2151 189.589 -27.1756 189.623 -27.1247 189.634L-18.9805 191.441L-10.8361 193.248C-10.7626 193.264 -10.718 193.321 -10.7082 193.384C-10.6983 193.446 -10.7229 193.515 -10.7878 193.553L-17.9752 197.788L-25.1624 202.023C-25.2073 202.049 -25.2347 202.093 -25.242 202.14C-25.2496 202.187 -25.237 202.237 -25.2025 202.276L-19.6757 208.525L-14.1487 214.774C-14.099 214.83 -14.0965 214.903 -14.1252 214.959C-14.1541 215.016 -14.2142 215.056 -14.2891 215.049L-22.5931 214.251L-30.8971 213.452C-30.949 213.447 -30.9968 213.467 -31.0304 213.5C-31.064 213.534 -31.0834 213.582 -31.0782 213.633L-30.2799 221.938L-29.4815 230.242C-29.4743 230.316 -29.5149 230.377 -29.5714 230.405C-29.6279 230.434 -29.7003 230.432 -29.7568 230.382L-36.0057 224.855L-42.2545 219.328C-42.2937 219.294 -42.3437 219.281 -42.3906 219.289C-42.4375 219.296 -42.4813 219.323 -42.5076 219.368L-46.7427 226.555L-50.9777 233.743C-51.0159 233.808 -51.0842 233.832 -51.1467 233.822C-51.2094 233.813 -51.2667 233.768 -51.2829 233.695L-53.0898 225.55L-54.8966 217.406C-54.9079 217.355 -54.9412 217.316 -54.9834 217.294C-55.0257 217.273 -55.0771 217.269 -55.1249 217.29L-62.7759 220.615L-70.4269 223.941C-70.4959 223.971 -70.5656 223.951 -70.6105 223.906C-70.6552 223.861 -70.6753 223.791 -70.6453 223.722L-67.3198 216.071L-63.9945 208.42C-63.9736 208.372 -63.9774 208.321 -63.9989 208.279C-64.0204 208.236 -64.0599 208.203 -64.1108 208.192L-72.2549 206.385L-80.3994 204.578C-80.4729 204.562 -80.5175 204.505 -80.5272 204.442C-80.5371 204.379 -80.5125 204.311 -80.4477 204.273L-73.2603 200.038L-66.073 195.803C-66.0281 195.776 -66.0007 195.733 -65.9935 195.686C-65.9859 195.639 -65.9984 195.589 -66.0329 195.55L-71.5598 189.301L-77.0868 183.052C-77.1365 182.995 -77.1389 182.923 -77.1103 182.867C-77.0813 182.81 -77.0213 182.769 -76.9464 182.777L-68.6423 183.575L-60.3383 184.373C-60.2865 184.379 -60.2386 184.359 -60.205 184.326C-60.1715 184.292 -60.1521 184.244 -60.1572 184.192L-60.9556 175.888ZM-57.3899 194.133C-58.01 195.662 -58.32 197.287 -58.3202 198.913C-58.32 200.538 -58.01 202.164 -57.3899 203.693C-56.77 205.222 -55.8397 206.655 -54.5996 207.895C-53.3594 209.135 -51.9267 210.065 -50.3976 210.685C-48.8686 211.305 -47.2432 211.615 -45.6177 211.615C-43.9923 211.615 -42.3669 211.305 -40.8379 210.685C-39.3088 210.065 -37.8759 209.135 -36.6357 207.895C-35.3956 206.655 -34.4655 205.222 -33.8455 203.693C-33.2255 202.164 -32.9154 200.538 -32.9153 198.913C-32.9154 197.287 -33.2255 195.662 -33.8455 194.133C-34.4655 192.604 -35.3957 191.171 -36.6359 189.931C-37.876 188.691 -39.3088 187.761 -40.8379 187.141C-42.3669 186.521 -43.9923 186.211 -45.6177 186.21C-47.2432 186.211 -48.8686 186.521 -50.3976 187.141C-51.9267 187.761 -53.3596 188.691 -54.5997 189.931C-55.8399 191.171 -56.77 192.604 -57.3899 194.133ZM-132.043 120.174L-123.739 120.973C-123.687 120.978 -123.64 120.958 -123.606 120.925C-123.572 120.891 -123.553 120.843 -123.558 120.791L-124.356 112.487L-125.155 104.183C-125.162 104.108 -125.121 104.048 -125.065 104.019C-125.008 103.991 -124.936 103.993 -124.88 104.043L-118.631 109.57L-112.382 115.097C-112.343 115.131 -112.293 115.144 -112.246 115.136C-112.199 115.129 -112.155 115.102 -112.129 115.057L-107.894 107.869L-103.659 100.682C-103.62 100.617 -103.552 100.593 -103.49 100.603C-103.427 100.612 -103.37 100.657 -103.353 100.73L-101.547 108.875L-99.7397 117.019C-99.7285 117.07 -99.6952 117.109 -99.6529 117.131C-99.6107 117.152 -99.5593 117.156 -99.5114 117.135L-91.8605 113.81L-84.2093 110.484C-84.1403 110.454 -84.0706 110.475 -84.0259 110.519C-83.981 110.564 -83.9609 110.634 -83.9909 110.703L-87.3165 118.354L-90.6418 126.005C-90.6627 126.053 -90.659 126.104 -90.6375 126.146C-90.616 126.189 -90.5765 126.222 -90.5256 126.233L-82.3814 128.04L-74.237 129.847C-74.1635 129.863 -74.1189 129.92 -74.1091 129.983C-74.0992 130.046 -74.1238 130.114 -74.1887 130.152L-81.3761 134.387L-88.5633 138.622C-88.6082 138.648 -88.6356 138.692 -88.6429 138.739C-88.6505 138.786 -88.6379 138.836 -88.6034 138.875L-83.0766 145.124L-77.5496 151.373C-77.4999 151.429 -77.4974 151.502 -77.5261 151.558C-77.555 151.615 -77.6151 151.655 -77.69 151.648L-85.994 150.85L-94.298 150.051C-94.3499 150.046 -94.3977 150.066 -94.4313 150.099C-94.4649 150.133 -94.4842 150.181 -94.4791 150.233L-93.6807 158.537L-92.8823 166.841C-92.8752 166.916 -92.9158 166.976 -92.9723 167.005C-93.0288 167.033 -93.1012 167.031 -93.1577 166.981L-99.4066 161.454L-105.655 155.927C-105.695 155.893 -105.745 155.88 -105.791 155.888C-105.838 155.895 -105.882 155.922 -105.908 155.967L-110.144 163.155L-114.379 170.342C-114.417 170.407 -114.485 170.431 -114.548 170.421C-114.61 170.412 -114.668 170.367 -114.684 170.294L-116.491 162.149L-118.297 154.005C-118.309 153.954 -118.342 153.915 -118.384 153.893C-118.427 153.872 -118.478 153.868 -118.526 153.889L-126.177 157.214L-133.828 160.54C-133.897 160.57 -133.966 160.55 -134.011 160.505C-134.056 160.46 -134.076 160.39 -134.046 160.321L-130.721 152.67L-127.395 145.019C-127.375 144.971 -127.378 144.92 -127.4 144.878C-127.421 144.835 -127.461 144.802 -127.512 144.791L-135.656 142.984L-143.8 141.177C-143.874 141.161 -143.918 141.104 -143.928 141.041C-143.938 140.978 -143.913 140.91 -143.849 140.872L-136.661 136.637L-129.474 132.402C-129.429 132.376 -129.402 132.332 -129.394 132.285C-129.387 132.238 -129.399 132.188 -129.434 132.149L-134.961 125.9L-140.488 119.651C-140.537 119.595 -140.54 119.522 -140.511 119.466C-140.482 119.409 -140.422 119.369 -140.347 119.376L-132.043 120.174ZM-120.791 130.732C-121.411 132.261 -121.721 133.887 -121.721 135.512C-121.721 137.137 -121.411 138.763 -120.791 140.292C-120.171 141.821 -119.241 143.254 -118 144.494C-116.76 145.734 -115.328 146.664 -113.798 147.284C-112.269 147.904 -110.644 148.214 -109.019 148.214C-107.393 148.214 -105.768 147.904 -104.239 147.284C-102.71 146.664 -101.277 145.734 -100.037 144.494C-98.7965 143.254 -97.8663 141.821 -97.2464 140.292C-96.6263 138.763 -96.3163 137.137 -96.3162 135.512C-96.3163 133.887 -96.6263 132.261 -97.2464 130.732C-97.8663 129.203 -98.7966 127.77 -100.037 126.53C-101.277 125.29 -102.71 124.36 -104.239 123.74C-105.768 123.12 -107.393 122.81 -109.019 122.81C-110.644 122.81 -112.269 123.12 -113.798 123.74C-115.328 124.36 -116.76 125.29 -118.001 126.53C-119.241 127.77 -120.171 129.203 -120.791 130.732Z" fill="#320073"/>
<path d="M-45.6177 8.71026L524.99 579.318L461.589 642.719L-109.019 72.1111L-45.6177 8.71026Z" fill="#320073"/>
<path d="M470.501 583.01C473.727 583.01 476.952 581.779 479.413 579.318C481.874 576.857 483.105 573.632 483.105 570.406C483.105 567.181 481.874 563.955 479.413 561.494C476.952 559.033 473.727 557.803 470.501 557.803C467.276 557.803 464.051 559.033 461.59 561.494C459.129 563.955 457.898 567.181 457.898 570.406C457.898 573.632 459.129 576.857 461.59 579.318C464.051 581.779 467.276 583.01 470.501 583.01ZM398.189 515.917C395.728 513.456 394.497 510.231 394.497 507.005C394.497 503.78 395.728 500.555 398.189 498.094C400.65 495.633 403.875 494.402 407.1 494.402C410.326 494.402 413.551 495.633 416.012 498.094C418.473 500.555 419.704 503.78 419.704 507.006C419.704 510.231 418.473 513.456 416.012 515.917C413.551 518.378 410.326 519.609 407.101 519.609C403.875 519.609 400.65 518.378 398.189 515.917ZM334.788 452.516C332.327 450.055 331.096 446.83 331.096 443.605C331.096 440.379 332.327 437.154 334.788 434.693C337.249 432.232 340.474 431.001 343.7 431.001C346.925 431.001 350.151 432.232 352.612 434.693C355.073 437.154 356.303 440.379 356.303 443.605C356.303 446.83 355.073 450.055 352.612 452.516C350.151 454.977 346.925 456.208 343.7 456.208C340.474 456.208 337.249 454.977 334.788 452.516ZM271.387 389.116C268.926 386.655 267.696 383.429 267.695 380.204C267.696 376.978 268.926 373.753 271.387 371.292C273.848 368.831 277.073 367.601 280.299 367.6C283.524 367.601 286.75 368.831 289.211 371.292C291.672 373.753 292.902 376.978 292.902 380.204C292.902 383.429 291.672 386.655 289.211 389.116C286.75 391.577 283.524 392.807 280.299 392.807C277.073 392.807 273.848 391.577 271.387 389.116ZM207.986 325.715C205.525 323.254 204.295 320.028 204.294 316.803C204.295 313.577 205.525 310.352 207.986 307.891C210.447 305.43 213.672 304.2 216.898 304.2C220.123 304.2 223.349 305.43 225.81 307.891C228.271 310.352 229.501 313.577 229.501 316.803C229.501 320.028 228.271 323.254 225.81 325.715C223.349 328.176 220.123 329.406 216.898 329.406C213.672 329.406 210.447 328.176 207.986 325.715ZM144.585 262.314C142.124 259.853 140.894 256.627 140.894 253.402C140.894 250.177 142.124 246.951 144.585 244.49C147.046 242.029 150.272 240.799 153.497 240.799C156.722 240.799 159.948 242.029 162.409 244.49C164.87 246.951 166.1 250.176 166.1 253.402C166.1 256.627 164.87 259.853 162.409 262.314C159.948 264.775 156.722 266.005 153.497 266.005C150.271 266.005 147.046 264.775 144.585 262.314ZM81.1842 198.913C78.7233 196.452 77.4929 193.227 77.4927 190.001C77.4929 186.776 78.7233 183.55 81.1842 181.089C83.6452 178.628 86.8707 177.398 90.096 177.398C93.3216 177.398 96.547 178.628 99.008 181.089C101.469 183.55 102.699 186.776 102.699 190.001C102.699 193.226 101.469 196.452 99.008 198.913C96.547 201.374 93.3214 202.604 90.0961 202.604C86.8705 202.604 83.6452 201.374 81.1842 198.913ZM17.7833 135.512C15.3224 133.051 14.092 129.826 14.0918 126.6C14.092 123.375 15.3224 120.149 17.7834 117.688C20.2443 115.227 23.4698 113.997 26.6951 113.997C29.9207 113.997 33.1461 115.227 35.6071 117.688C38.0681 120.149 39.2983 123.375 39.2985 126.6C39.2983 129.826 38.0681 133.051 35.6071 135.512C33.1461 137.973 29.9205 139.203 26.6952 139.204C23.4696 139.203 20.2443 137.973 17.7833 135.512ZM-45.6175 72.1111C-48.0785 69.6501 -49.3089 66.4248 -49.3091 63.1992C-49.3089 59.9739 -48.0785 56.7483 -45.6175 54.2873C-43.1566 51.8264 -39.9311 50.5961 -36.7058 50.596C-33.4802 50.5961 -30.2547 51.8264 -27.7938 54.2873C-25.3328 56.7483 -24.1026 59.9738 -24.1024 63.1994C-24.1026 66.4247 -25.3328 69.6501 -27.7938 72.1111C-30.2547 74.5721 -33.4804 75.8025 -36.7057 75.8026C-39.9313 75.8025 -43.1566 74.5721 -45.6175 72.1111ZM-69.3766 32.6355L-69.4093 64.2024L-69.4416 95.7689C-69.4418 95.8149 -69.4231 95.8566 -69.393 95.8866C-69.363 95.9166 -69.3214 95.9353 -69.2754 95.9352L-37.7088 95.9028L-6.14197 95.8702C-6.09615 95.8702 -6.05452 95.8889 -6.02449 95.9189C-5.99446 95.949 -5.97573 95.9906 -5.97573 96.0364L-6.00839 127.603L-6.04074 159.17C-6.04089 159.216 -6.02216 159.257 -5.99213 159.287C-5.9621 159.318 -5.92047 159.336 -5.8745 159.336L25.6921 159.304L57.2589 159.271C57.3047 159.271 57.3464 159.29 57.3764 159.32C57.4064 159.35 57.4252 159.391 57.4252 159.437L57.3925 191.004L57.3602 222.571C57.36 222.617 57.3787 222.658 57.4088 222.688C57.4388 222.718 57.4804 222.737 57.5264 222.737L89.0929 222.705L120.66 222.672C120.706 222.672 120.747 222.691 120.777 222.721C120.807 222.751 120.826 222.792 120.826 222.838L120.793 254.405L120.761 285.972C120.761 286.018 120.78 286.059 120.81 286.089C120.84 286.119 120.881 286.138 120.927 286.138L152.494 286.106L184.061 286.073C184.107 286.073 184.148 286.092 184.178 286.122C184.208 286.152 184.227 286.193 184.227 286.239L184.194 317.806L184.162 349.372C184.162 349.418 184.181 349.46 184.211 349.49C184.241 349.52 184.282 349.539 184.328 349.539L215.895 349.506L247.462 349.474C247.507 349.474 247.549 349.492 247.579 349.522C247.609 349.553 247.628 349.594 247.628 349.64L247.595 381.207L247.563 412.773C247.563 412.819 247.581 412.861 247.611 412.891C247.641 412.921 247.683 412.94 247.729 412.94L279.296 412.907L310.862 412.875C310.908 412.875 310.95 412.893 310.98 412.923C311.01 412.953 311.029 412.995 311.029 413.041L310.996 444.608L310.964 476.174C310.964 476.22 310.982 476.262 311.012 476.292C311.042 476.322 311.084 476.341 311.13 476.341L342.696 476.308L374.263 476.276C374.309 476.276 374.351 476.294 374.381 476.324C374.411 476.354 374.43 476.396 374.43 476.442L374.397 508.009L374.365 539.575C374.364 539.621 374.383 539.663 374.413 539.693C374.443 539.723 374.485 539.742 374.531 539.741L406.097 539.709L437.664 539.676C437.71 539.676 437.752 539.695 437.782 539.725C437.812 539.755 437.83 539.797 437.83 539.843L437.798 571.409L437.765 602.976C437.765 603.022 437.784 603.064 437.814 603.094C437.844 603.124 437.886 603.142 437.932 603.142L469.498 603.11L501.065 603.077C501.111 603.077 501.153 603.096 501.183 603.126L461.59 642.719L-109.018 72.1111L-69.4254 32.5181C-69.3953 32.5481 -69.3766 32.5897 -69.3766 32.6355Z" fill="#FF00A5"/>
</g>
</g>
<defs>
<clipPath id="clip0_101_2674">
<rect width="400" height="400" fill="white"/>
</clipPath>
<clipPath id="clip1_101_2674">
<rect width="806.962" height="268.987" fill="white" transform="matrix(-0.707107 -0.707107 -0.707107 0.707107 524.99 579.318)"/>
</clipPath>
</defs>
</svg>
