<svg width="400" height="400" viewBox="0 0 400 400" fill="none" xmlns="http://www.w3.org/2000/svg">
<g clip-path="url(#clip0_101_2508)">
<g clip-path="url(#clip1_101_2508)">
<path d="M610.778 127.778L215.778 522.778L259.667 566.667L654.667 171.667L610.778 127.778Z" fill="#320073"/>
<path d="M284.284 518.738C284.312 518.752 284.334 518.776 284.344 518.808L285.763 523.457L287.183 528.106C287.192 528.135 287.189 528.164 287.177 528.19C287.164 528.215 287.143 528.236 287.116 528.247C281.628 530.451 277.349 531.415 274.315 531.81C271.281 532.206 269.492 532.033 268.983 531.965C268.945 531.96 268.911 531.974 268.887 531.998C268.863 532.022 268.849 532.056 268.854 532.094C268.922 532.603 269.095 534.392 268.699 537.426C268.304 540.46 267.34 544.738 265.136 550.227C265.125 550.254 265.104 550.275 265.079 550.288C265.053 550.3 265.024 550.303 264.995 550.294L260.346 548.874L255.697 547.455C255.665 547.445 255.641 547.423 255.627 547.395C255.614 547.368 255.611 547.335 255.624 547.303C255.828 546.781 256.685 544.544 257.396 542.02C258.107 539.495 258.673 536.682 258.295 535.004C257.889 533.207 257.091 532.487 255.717 531.538C254.342 530.59 252.39 529.413 249.678 526.7C246.755 523.777 245.143 519.054 244.256 514.888C243.369 510.722 243.206 507.111 243.182 506.412C243.181 506.378 243.194 506.348 243.216 506.327C243.237 506.305 243.267 506.292 243.301 506.293C244 506.317 247.611 506.48 251.777 507.367C255.944 508.254 260.666 509.866 263.589 512.789C266.302 515.501 267.479 517.453 268.427 518.828C269.376 520.202 270.096 521 271.893 521.405C273.571 521.784 276.384 521.218 278.909 520.507C281.433 519.796 283.67 518.939 284.192 518.735C284.224 518.722 284.257 518.725 284.284 518.738ZM328.081 474.846C327.559 475.05 325.322 475.907 322.798 476.618C320.273 477.329 317.459 477.895 315.782 477.517C313.984 477.111 313.265 476.313 312.316 474.939C311.368 473.564 310.191 471.612 307.478 468.9C304.555 465.977 299.832 464.365 295.666 463.478C291.5 462.591 287.889 462.428 287.19 462.404C287.156 462.403 287.126 462.416 287.105 462.438C287.083 462.459 287.07 462.489 287.071 462.523C287.095 463.222 287.257 466.833 288.145 470.999C289.032 475.166 290.643 479.888 293.566 482.811C296.279 485.524 298.231 486.701 299.605 487.649C300.98 488.598 301.778 489.318 302.183 491.115C302.562 492.793 301.996 495.606 301.285 498.131C300.574 500.656 299.717 502.892 299.513 503.415C299.5 503.446 299.503 503.479 299.516 503.506C299.53 503.534 299.554 503.556 299.586 503.566L304.235 504.985L308.884 506.405C308.913 506.414 308.942 506.411 308.968 506.399C308.993 506.386 309.014 506.365 309.025 506.338C311.229 500.85 312.193 496.571 312.588 493.537C312.984 490.503 312.811 488.714 312.743 488.205C312.738 488.167 312.751 488.133 312.775 488.109C312.799 488.085 312.834 488.071 312.872 488.076C313.381 488.144 315.17 488.317 318.204 487.921C321.238 487.526 325.516 486.563 331.004 484.358C331.032 484.347 331.053 484.326 331.066 484.301C331.078 484.276 331.081 484.246 331.072 484.218L329.652 479.568L328.233 474.919C328.223 474.887 328.201 474.863 328.173 474.849C328.145 474.836 328.113 474.834 328.081 474.846ZM371.97 430.957C371.447 431.161 369.211 432.018 366.686 432.729C364.162 433.44 361.348 434.006 359.671 433.628C357.873 433.222 357.154 432.424 356.205 431.05C355.257 429.675 354.08 427.724 351.367 425.011C348.444 422.088 343.721 420.476 339.555 419.589C335.388 418.702 331.778 418.539 331.079 418.515C331.045 418.514 331.015 418.527 330.993 418.549C330.972 418.57 330.959 418.601 330.96 418.634C330.984 419.333 331.146 422.944 332.033 427.11C332.921 431.277 334.532 435.999 337.455 438.922C340.168 441.635 342.12 442.812 343.494 443.761C344.869 444.709 345.667 445.429 346.072 447.227C346.451 448.904 345.885 451.717 345.174 454.242C344.463 456.767 343.606 459.003 343.402 459.526C343.389 459.557 343.392 459.59 343.405 459.617C343.419 459.645 343.443 459.667 343.475 459.677L348.124 461.096L352.773 462.516C352.802 462.525 352.831 462.522 352.857 462.51C352.882 462.498 352.903 462.476 352.914 462.449C355.118 456.961 356.082 452.682 356.477 449.648C356.873 446.614 356.7 444.825 356.632 444.316C356.627 444.278 356.64 444.244 356.664 444.22C356.688 444.196 356.723 444.182 356.761 444.187C357.27 444.255 359.059 444.428 362.093 444.033C365.127 443.637 369.405 442.674 374.893 440.469C374.921 440.458 374.942 440.437 374.954 440.412C374.966 440.387 374.97 440.357 374.961 440.329L373.541 435.68L372.122 431.03C372.112 430.999 372.09 430.974 372.062 430.961C372.034 430.947 372.001 430.945 371.97 430.957ZM415.859 387.068C415.336 387.272 413.1 388.129 410.575 388.84C408.051 389.551 405.237 390.117 403.56 389.739C401.762 389.333 401.043 388.536 400.094 387.161C399.146 385.786 397.968 383.835 395.256 381.122C392.333 378.199 387.61 376.587 383.444 375.7C379.277 374.813 375.667 374.65 374.967 374.626C374.934 374.625 374.904 374.638 374.882 374.66C374.861 374.682 374.848 374.712 374.849 374.745C374.873 375.444 375.035 379.055 375.922 383.221C376.809 387.388 378.421 392.11 381.344 395.033C384.057 397.746 386.009 398.923 387.383 399.872C388.758 400.82 389.556 401.54 389.961 403.338C390.339 405.015 389.774 407.828 389.063 410.353C388.352 412.878 387.495 415.114 387.29 415.637C387.278 415.668 387.281 415.701 387.294 415.728C387.308 415.756 387.332 415.778 387.364 415.788L392.013 417.208L396.662 418.627C396.691 418.636 396.72 418.633 396.745 418.621C396.771 418.609 396.792 418.587 396.803 418.56C399.007 413.072 399.971 408.793 400.366 405.759C400.761 402.726 400.589 400.936 400.521 400.427C400.516 400.39 400.529 400.355 400.553 400.331C400.577 400.307 400.612 400.293 400.65 400.298C401.159 400.366 402.948 400.539 405.982 400.144C409.016 399.748 413.294 398.785 418.782 396.58C418.81 396.569 418.831 396.548 418.843 396.523C418.855 396.498 418.858 396.468 418.85 396.44L417.43 391.791L416.01 387.142C416.001 387.11 415.978 387.085 415.951 387.072C415.923 387.058 415.89 387.056 415.859 387.068ZM459.748 343.179C459.225 343.383 456.989 344.24 454.464 344.951C451.939 345.663 449.126 346.228 447.449 345.85C445.651 345.445 444.932 344.647 443.983 343.272C443.035 341.897 441.857 339.946 439.145 337.233C436.222 334.31 431.499 332.698 427.333 331.811C423.166 330.924 419.556 330.762 418.856 330.738C418.823 330.736 418.793 330.749 418.771 330.771C418.75 330.793 418.737 330.823 418.738 330.856C418.762 331.555 418.924 335.166 419.811 339.333C420.698 343.499 422.31 348.221 425.233 351.144C427.946 353.857 429.898 355.034 431.272 355.983C432.647 356.931 433.445 357.651 433.85 359.449C434.228 361.126 433.663 363.939 432.952 366.464C432.24 368.989 431.384 371.225 431.179 371.748C431.167 371.779 431.17 371.812 431.183 371.84C431.196 371.867 431.221 371.889 431.253 371.899L435.902 373.319L440.551 374.738C440.58 374.747 440.609 374.744 440.634 374.732C440.66 374.72 440.68 374.699 440.692 374.671C442.896 369.183 443.86 364.904 444.255 361.871C444.65 358.837 444.478 357.047 444.41 356.538C444.405 356.501 444.418 356.466 444.442 356.442C444.466 356.418 444.501 356.404 444.538 356.409C445.048 356.477 446.837 356.65 449.871 356.255C452.905 355.859 457.183 354.896 462.671 352.691C462.699 352.68 462.72 352.659 462.732 352.634C462.744 352.609 462.747 352.579 462.739 352.551L461.319 347.902L459.899 343.253C459.89 343.221 459.867 343.196 459.84 343.183C459.812 343.169 459.779 343.167 459.748 343.179ZM503.637 299.29C503.114 299.495 500.878 300.351 498.353 301.063C495.828 301.774 493.015 302.339 491.338 301.961C489.54 301.556 488.82 300.758 487.872 299.383C486.923 298.008 485.746 296.057 483.033 293.344C480.11 290.421 475.388 288.809 471.222 287.922C467.055 287.035 463.444 286.873 462.745 286.849C462.712 286.848 462.682 286.86 462.66 286.882C462.638 286.904 462.625 286.934 462.627 286.967C462.651 287.666 462.813 291.277 463.7 295.444C464.587 299.61 466.199 304.332 469.122 307.255C471.835 309.968 473.786 311.146 475.161 312.094C476.536 313.042 477.334 313.762 477.739 315.56C478.117 317.237 477.552 320.05 476.841 322.575C476.129 325.1 475.273 327.336 475.068 327.859C475.056 327.89 475.058 327.923 475.072 327.951C475.085 327.978 475.11 328 475.142 328.01L479.791 329.43L484.44 330.849C484.468 330.858 484.498 330.855 484.523 330.843C484.549 330.831 484.569 330.81 484.58 330.782C486.785 325.294 487.748 321.015 488.144 317.982C488.539 314.948 488.366 313.159 488.299 312.649C488.294 312.612 488.307 312.577 488.331 312.553C488.355 312.529 488.39 312.516 488.427 312.521C488.937 312.589 490.726 312.761 493.76 312.366C496.793 311.97 501.072 311.007 506.56 308.802C506.588 308.791 506.609 308.771 506.621 308.745C506.633 308.72 506.636 308.69 506.627 308.662L505.208 304.013L503.788 299.364C503.778 299.332 503.756 299.307 503.729 299.294C503.701 299.28 503.668 299.278 503.637 299.29ZM547.526 255.401C547.003 255.606 544.767 256.462 542.242 257.174C539.717 257.885 536.904 258.45 535.227 258.072C533.429 257.667 532.709 256.869 531.761 255.494C530.812 254.12 529.635 252.168 526.922 249.455C523.999 246.532 519.277 244.92 515.111 244.033C510.944 243.146 507.333 242.984 506.634 242.96C506.601 242.959 506.571 242.972 506.549 242.993C506.527 243.015 506.514 243.045 506.516 243.078C506.54 243.778 506.702 247.388 507.589 251.555C508.476 255.721 510.088 260.444 513.011 263.367C515.724 266.079 517.675 267.257 519.05 268.205C520.425 269.154 521.223 269.873 521.628 271.671C522.006 273.348 521.441 276.161 520.729 278.686C520.018 281.211 519.161 283.447 518.957 283.97C518.945 284.001 518.947 284.034 518.961 284.062C518.974 284.089 518.999 284.112 519.031 284.121L523.68 285.541L528.329 286.961C528.357 286.969 528.387 286.966 528.412 286.954C528.437 286.942 528.458 286.921 528.469 286.893C530.674 281.405 531.637 277.127 532.033 274.093C532.428 271.059 532.255 269.27 532.187 268.76C532.182 268.723 532.196 268.688 532.22 268.664C532.244 268.64 532.279 268.627 532.316 268.632C532.825 268.7 534.615 268.872 537.648 268.477C540.682 268.082 544.961 267.118 550.449 264.914C550.477 264.902 550.498 264.882 550.51 264.856C550.522 264.831 550.525 264.802 550.516 264.773L549.097 260.124L547.677 255.475C547.667 255.443 547.645 255.418 547.618 255.405C547.59 255.392 547.557 255.389 547.526 255.401ZM591.415 211.512C590.892 211.717 588.656 212.574 586.131 213.285C583.606 213.996 580.793 214.561 579.116 214.183C577.318 213.778 576.598 212.98 575.65 211.605C574.701 210.231 573.524 208.279 570.811 205.566C567.888 202.643 563.166 201.031 558.999 200.144C554.833 199.257 551.222 199.095 550.523 199.071C550.49 199.07 550.46 199.083 550.438 199.104C550.416 199.126 550.403 199.156 550.404 199.189C550.428 199.889 550.591 203.499 551.478 207.666C552.365 211.832 553.977 216.555 556.9 219.478C559.613 222.19 561.564 223.368 562.939 224.316C564.314 225.265 565.111 225.984 565.517 227.782C565.895 229.459 565.329 232.273 564.618 234.797C563.907 237.322 563.05 239.558 562.846 240.081C562.834 240.112 562.836 240.145 562.85 240.173C562.863 240.2 562.888 240.223 562.92 240.232L567.569 241.652L572.218 243.072C572.246 243.08 572.276 243.077 572.301 243.065C572.326 243.053 572.347 243.032 572.358 243.004C574.563 237.516 575.526 233.238 575.922 230.204C576.317 227.17 576.144 225.381 576.076 224.872C576.071 224.834 576.085 224.799 576.109 224.775C576.133 224.751 576.168 224.738 576.205 224.743C576.714 224.811 578.504 224.983 581.537 224.588C584.571 224.193 588.85 223.229 594.338 221.025C594.365 221.014 594.387 220.993 594.399 220.967C594.411 220.942 594.414 220.913 594.405 220.884L592.986 216.235L591.566 211.586C591.556 211.554 591.534 211.53 591.506 211.516C591.479 211.503 591.446 211.5 591.415 211.512ZM635.395 167.627C635.368 167.614 635.335 167.611 635.304 167.624C634.781 167.828 632.545 168.685 630.02 169.396C627.495 170.107 624.682 170.673 623.005 170.294C621.207 169.889 620.487 169.091 619.539 167.716C618.59 166.342 617.413 164.39 614.7 161.677C611.777 158.754 607.055 157.143 602.888 156.255C598.722 155.368 595.111 155.206 594.412 155.182C594.379 155.181 594.348 155.194 594.327 155.215C594.305 155.237 594.292 155.267 594.293 155.301C594.317 156 594.48 159.61 595.367 163.777C596.254 167.943 597.866 172.666 600.789 175.589C603.502 178.302 605.453 179.479 606.828 180.427C608.202 181.376 609 182.095 609.406 183.893C609.784 185.57 609.218 188.384 608.507 190.908C607.796 193.433 606.939 195.67 606.735 196.192C606.723 196.223 606.725 196.256 606.739 196.284C606.752 196.312 606.777 196.334 606.808 196.344L611.457 197.763L616.107 199.183C616.135 199.192 616.165 199.188 616.19 199.176C616.215 199.164 616.236 199.143 616.247 199.115C618.452 193.627 619.415 189.349 619.811 186.315C620.206 183.281 620.033 181.492 619.965 180.983C619.96 180.945 619.974 180.91 619.998 180.886C620.022 180.862 620.056 180.849 620.094 180.854C620.603 180.922 622.392 181.095 625.426 180.699C628.46 180.304 632.739 179.34 638.227 177.136C638.254 177.125 638.276 177.104 638.288 177.079C638.3 177.053 638.303 177.024 638.294 176.995L636.874 172.346L635.455 167.697C635.445 167.665 635.423 167.641 635.395 167.627Z" fill="#FFD200"/>
<path d="M566.889 83.8889L171.889 478.889L215.778 522.778L610.778 127.778L566.889 83.8889Z" fill="#0096D2"/>
<path d="M226.395 462.95L226.948 457.202C226.953 457.15 226.925 457.108 226.885 457.088C226.846 457.069 226.796 457.07 226.757 457.105L222.431 460.931L218.106 464.757C218.079 464.78 218.044 464.789 218.011 464.784C217.979 464.779 217.949 464.76 217.93 464.729L214.999 459.754L212.067 454.778C212.041 454.733 211.993 454.716 211.95 454.723C211.907 454.73 211.867 454.761 211.856 454.812L210.605 460.449L209.354 466.087C209.346 466.122 209.323 466.15 209.294 466.165C209.265 466.18 209.229 466.182 209.196 466.168L203.9 463.866L198.603 461.564C198.556 461.543 198.507 461.557 198.476 461.588C198.445 461.619 198.431 461.667 198.452 461.715L200.754 467.011L203.056 472.308C203.071 472.341 203.068 472.376 203.053 472.406C203.038 472.435 203.011 472.458 202.976 472.466L197.338 473.716L191.7 474.967C191.649 474.978 191.618 475.018 191.612 475.061C191.605 475.105 191.622 475.152 191.667 475.178L196.642 478.11L201.617 481.042C201.648 481.06 201.667 481.09 201.672 481.123C201.678 481.155 201.669 481.19 201.645 481.217L197.819 485.543L193.993 489.869C193.959 489.908 193.957 489.958 193.977 489.997C193.997 490.036 194.039 490.064 194.09 490.059L199.839 489.506L205.587 488.954C205.623 488.95 205.656 488.964 205.679 488.987C205.703 489.01 205.716 489.043 205.713 489.079L205.16 494.828L204.607 500.576C204.602 500.628 204.63 500.669 204.669 500.689C204.709 500.709 204.759 500.708 204.798 500.673L209.124 496.847L213.449 493.021C213.476 492.997 213.511 492.989 213.543 492.994C213.576 492.999 213.606 493.018 213.624 493.049L216.556 498.024L219.488 503C219.514 503.045 219.562 503.062 219.605 503.055C219.648 503.048 219.688 503.017 219.699 502.966L220.95 497.328L222.201 491.691C222.209 491.655 222.232 491.628 222.261 491.613C222.29 491.598 222.326 491.596 222.359 491.61L227.655 493.912L232.951 496.214C232.999 496.235 233.047 496.221 233.079 496.19C233.109 496.159 233.123 496.111 233.103 496.063L230.801 490.767L228.499 485.47C228.484 485.437 228.487 485.401 228.502 485.372C228.517 485.343 228.544 485.32 228.579 485.312L234.217 484.061L239.855 482.811C239.906 482.799 239.937 482.76 239.943 482.716C239.95 482.673 239.933 482.626 239.888 482.599L234.913 479.668L229.938 476.736C229.906 476.718 229.887 476.687 229.882 476.655C229.877 476.622 229.886 476.588 229.91 476.561L233.736 472.235L237.562 467.909C237.596 467.87 237.598 467.82 237.578 467.781C237.558 467.742 237.516 467.714 237.465 467.719L231.716 468.271L225.968 468.824C225.932 468.828 225.899 468.814 225.875 468.791C225.852 468.768 225.839 468.735 225.842 468.699L226.395 462.95ZM223.927 475.58C224.356 476.639 224.571 477.764 224.571 478.889C224.571 480.014 224.356 481.139 223.927 482.198C223.498 483.256 222.854 484.248 221.995 485.107C221.137 485.965 220.145 486.609 219.086 487.038C218.028 487.467 216.903 487.682 215.777 487.682C214.652 487.682 213.527 487.467 212.469 487.038C211.41 486.609 210.418 485.965 209.56 485.107C208.701 484.248 208.057 483.256 207.628 482.198C207.199 481.139 206.984 480.014 206.984 478.889C206.984 477.764 207.199 476.639 207.628 475.58C208.057 474.522 208.701 473.53 209.56 472.671C210.418 471.813 211.41 471.169 212.469 470.74C213.527 470.31 214.652 470.096 215.777 470.096C216.903 470.096 218.028 470.31 219.086 470.74C220.145 471.169 221.137 471.813 221.995 472.671C222.854 473.53 223.498 474.522 223.927 475.58ZM270.284 419.061L270.837 413.313C270.842 413.261 270.813 413.219 270.774 413.199C270.735 413.18 270.685 413.181 270.646 413.216L266.32 417.042L261.995 420.868C261.967 420.892 261.933 420.9 261.9 420.895C261.868 420.89 261.838 420.871 261.819 420.84L258.888 415.865L255.956 410.889C255.929 410.844 255.882 410.827 255.839 410.834C255.796 410.841 255.756 410.872 255.745 410.923L254.494 416.561L253.243 422.198C253.235 422.234 253.212 422.261 253.183 422.276C253.154 422.291 253.118 422.293 253.085 422.279L247.789 419.977L242.492 417.675C242.444 417.654 242.396 417.668 242.365 417.699C242.334 417.73 242.32 417.778 242.341 417.826L244.643 423.122L246.945 428.419C246.96 428.452 246.957 428.487 246.942 428.517C246.927 428.546 246.9 428.569 246.865 428.577L241.227 429.828L235.589 431.078C235.538 431.09 235.507 431.129 235.5 431.173C235.494 431.216 235.511 431.263 235.556 431.29L240.531 434.221L245.506 437.153C245.537 437.171 245.556 437.202 245.561 437.234C245.567 437.266 245.558 437.301 245.534 437.328L241.708 441.654L237.882 445.98C237.848 446.019 237.846 446.069 237.866 446.108C237.886 446.147 237.927 446.175 237.979 446.17L243.728 445.618L249.476 445.065C249.512 445.061 249.545 445.075 249.568 445.098C249.592 445.121 249.605 445.154 249.601 445.19L249.049 450.939L248.496 456.687C248.491 456.739 248.519 456.78 248.558 456.801C248.597 456.82 248.648 456.819 248.687 456.784L253.013 452.958L257.338 449.132C257.365 449.108 257.4 449.1 257.432 449.105C257.465 449.11 257.495 449.129 257.513 449.16L260.445 454.135L263.377 459.111C263.403 459.156 263.45 459.173 263.494 459.166C263.537 459.159 263.577 459.128 263.588 459.077L264.839 453.439L266.09 447.802C266.097 447.766 266.12 447.739 266.15 447.724C266.179 447.709 266.215 447.707 266.248 447.721L271.544 450.023L276.84 452.325C276.888 452.346 276.936 452.332 276.967 452.301C276.998 452.27 277.012 452.222 276.992 452.174L274.689 446.878L272.388 441.581C272.373 441.548 272.376 441.513 272.391 441.483C272.405 441.454 272.433 441.431 272.468 441.423L278.106 440.172L283.744 438.922C283.795 438.91 283.825 438.871 283.832 438.827C283.839 438.784 283.822 438.737 283.777 438.71L278.802 435.779L273.826 432.847C273.795 432.829 273.776 432.798 273.771 432.766C273.766 432.734 273.775 432.699 273.799 432.672L277.625 428.346L281.451 424.02C281.485 423.981 281.487 423.931 281.467 423.892C281.447 423.853 281.405 423.825 281.353 423.83L275.605 424.382L269.857 424.935C269.821 424.939 269.788 424.925 269.764 424.902C269.741 424.879 269.728 424.846 269.731 424.81L270.284 419.061ZM267.816 431.691C268.245 432.75 268.459 433.875 268.46 435C268.459 436.125 268.245 437.25 267.816 438.309C267.386 439.367 266.742 440.359 265.884 441.218C265.025 442.076 264.034 442.72 262.975 443.149C261.917 443.578 260.792 443.793 259.666 443.793C258.541 443.793 257.416 443.578 256.358 443.149C255.299 442.72 254.307 442.076 253.449 441.218C252.59 440.359 251.946 439.367 251.517 438.309C251.088 437.25 250.873 436.125 250.873 435C250.873 433.875 251.088 432.75 251.517 431.691C251.946 430.633 252.59 429.641 253.449 428.782C254.307 427.924 255.299 427.28 256.358 426.851C257.416 426.422 258.541 426.207 259.666 426.207C260.792 426.207 261.917 426.422 262.975 426.851C264.034 427.28 265.026 427.924 265.884 428.782C266.743 429.641 267.386 430.633 267.816 431.691ZM314.173 375.172L314.725 369.424C314.73 369.372 314.702 369.331 314.663 369.311C314.624 369.291 314.574 369.292 314.535 369.327L310.209 373.153L305.883 376.979C305.856 377.003 305.822 377.011 305.789 377.006C305.757 377.001 305.726 376.982 305.708 376.951L302.776 371.976L299.845 367C299.818 366.955 299.771 366.938 299.728 366.945C299.684 366.952 299.645 366.983 299.634 367.034L298.383 372.672L297.132 378.309C297.124 378.345 297.101 378.372 297.072 378.387C297.043 378.402 297.007 378.404 296.974 378.39L291.678 376.088L286.381 373.786C286.333 373.765 286.285 373.779 286.254 373.81C286.223 373.841 286.209 373.889 286.23 373.937L288.532 379.233L290.834 384.53C290.848 384.563 290.846 384.598 290.831 384.628C290.816 384.657 290.789 384.68 290.754 384.688L285.116 385.939L279.478 387.189C279.427 387.201 279.396 387.24 279.389 387.284C279.382 387.327 279.4 387.374 279.444 387.401L284.42 390.332L289.395 393.264C289.426 393.282 289.445 393.313 289.45 393.345C289.456 393.378 289.447 393.412 289.423 393.439L285.597 397.765L281.771 402.091C281.737 402.13 281.735 402.18 281.755 402.219C281.775 402.258 281.816 402.286 281.868 402.281L287.617 401.729L293.365 401.176C293.401 401.172 293.434 401.186 293.457 401.209C293.481 401.232 293.494 401.265 293.49 401.301L292.938 407.05L292.385 412.798C292.38 412.85 292.408 412.892 292.447 412.912C292.486 412.931 292.537 412.93 292.576 412.895L296.901 409.069L301.227 405.243C301.254 405.22 301.289 405.211 301.321 405.216C301.354 405.221 301.384 405.24 301.402 405.271L304.334 410.246L307.266 415.222C307.292 415.267 307.339 415.284 307.383 415.277C307.426 415.27 307.466 415.239 307.477 415.188L308.728 409.551L309.978 403.913C309.986 403.878 310.009 403.85 310.039 403.835C310.068 403.82 310.103 403.818 310.137 403.832L315.433 406.134L320.729 408.436C320.777 408.457 320.825 408.443 320.856 408.412C320.887 408.381 320.901 408.333 320.88 408.285L318.578 402.989L316.276 397.692C316.262 397.659 316.265 397.624 316.279 397.594C316.294 397.565 316.322 397.542 316.357 397.534L321.995 396.284L327.633 395.033C327.684 395.022 327.714 394.982 327.721 394.939C327.728 394.895 327.711 394.848 327.666 394.822L322.691 391.89L317.715 388.958C317.684 388.94 317.665 388.91 317.66 388.877C317.655 388.845 317.664 388.81 317.688 388.783L321.513 384.457L325.339 380.131C325.374 380.092 325.376 380.042 325.356 380.003C325.336 379.964 325.294 379.936 325.242 379.941L319.494 380.494L313.745 381.046C313.71 381.05 313.676 381.036 313.653 381.013C313.63 380.99 313.617 380.957 313.62 380.921L314.173 375.172ZM311.704 387.802C312.134 388.861 312.348 389.986 312.348 391.111C312.348 392.236 312.134 393.361 311.704 394.42C311.275 395.478 310.631 396.47 309.773 397.329C308.914 398.187 307.923 398.831 306.864 399.26C305.806 399.69 304.68 399.904 303.555 399.904C302.43 399.904 301.305 399.69 300.246 399.26C299.188 398.831 298.196 398.187 297.337 397.329C296.479 396.47 295.835 395.478 295.406 394.42C294.977 393.361 294.762 392.236 294.762 391.111C294.762 389.986 294.977 388.861 295.406 387.802C295.835 386.744 296.479 385.752 297.338 384.893C298.196 384.035 299.188 383.391 300.246 382.962C301.305 382.533 302.43 382.318 303.555 382.318C304.68 382.318 305.806 382.533 306.864 382.962C307.923 383.391 308.914 384.035 309.773 384.893C310.631 385.752 311.275 386.744 311.704 387.802ZM358.062 331.284L358.614 325.535C358.619 325.483 358.591 325.442 358.552 325.422C358.513 325.402 358.463 325.404 358.424 325.438L354.098 329.264L349.772 333.09C349.745 333.114 349.711 333.122 349.678 333.117C349.646 333.112 349.615 333.093 349.597 333.062L346.665 328.087L343.734 323.111C343.707 323.067 343.66 323.049 343.617 323.056C343.573 323.063 343.534 323.094 343.522 323.145L342.272 328.783L341.021 334.421C341.013 334.456 340.99 334.483 340.961 334.498C340.932 334.513 340.896 334.515 340.863 334.501L335.566 332.199L330.27 329.897C330.222 329.876 330.174 329.89 330.143 329.921C330.112 329.952 330.098 330 330.119 330.048L332.421 335.345L334.723 340.641C334.737 340.674 334.735 340.71 334.72 340.739C334.705 340.768 334.678 340.791 334.642 340.799L329.005 342.05L323.367 343.301C323.316 343.312 323.285 343.351 323.278 343.395C323.271 343.438 323.288 343.485 323.333 343.512L328.309 346.443L333.284 349.375C333.315 349.393 333.334 349.424 333.339 349.456C333.344 349.489 333.336 349.523 333.312 349.55L329.486 353.876L325.66 358.202C325.625 358.241 325.624 358.291 325.644 358.33C325.664 358.369 325.705 358.397 325.757 358.392L331.505 357.84L337.254 357.287C337.29 357.284 337.323 357.297 337.346 357.32C337.369 357.343 337.383 357.377 337.379 357.412L336.827 363.161L336.274 368.909C336.269 368.961 336.297 369.003 336.336 369.023C336.375 369.043 336.425 369.041 336.465 369.006L340.79 365.18L345.116 361.355C345.143 361.331 345.178 361.322 345.21 361.327C345.243 361.332 345.273 361.351 345.291 361.382L348.223 366.358L351.155 371.333C351.181 371.378 351.228 371.395 351.272 371.388C351.315 371.381 351.355 371.35 351.366 371.3L352.617 365.662L353.867 360.024C353.875 359.989 353.898 359.961 353.927 359.946C353.957 359.932 353.992 359.929 354.025 359.943L359.322 362.245L364.618 364.547C364.666 364.568 364.714 364.554 364.745 364.523C364.776 364.492 364.79 364.444 364.769 364.396L362.467 359.1L360.165 353.804C360.151 353.77 360.153 353.735 360.168 353.706C360.183 353.676 360.211 353.653 360.246 353.645L365.884 352.395L371.521 351.144C371.572 351.133 371.603 351.093 371.61 351.05C371.617 351.006 371.6 350.959 371.555 350.933L366.58 348.001L361.604 345.069C361.573 345.051 361.554 345.021 361.549 344.988C361.544 344.956 361.553 344.921 361.576 344.894L365.402 340.568L369.228 336.243C369.263 336.203 369.264 336.153 369.245 336.114C369.225 336.075 369.183 336.047 369.131 336.052L363.383 336.605L357.634 337.157C357.598 337.161 357.565 337.147 357.542 337.124C357.519 337.101 357.505 337.068 357.509 337.032L358.062 331.284ZM355.593 343.913C356.023 344.972 356.237 346.097 356.237 347.222C356.237 348.347 356.023 349.473 355.593 350.531C355.164 351.59 354.52 352.581 353.662 353.44C352.803 354.298 351.811 354.942 350.753 355.371C349.695 355.801 348.569 356.015 347.444 356.015C346.319 356.015 345.194 355.801 344.135 355.371C343.077 354.942 342.085 354.298 341.226 353.44C340.368 352.581 339.724 351.59 339.295 350.531C338.866 349.473 338.651 348.347 338.651 347.222C338.651 346.097 338.866 344.972 339.295 343.913C339.724 342.855 340.368 341.863 341.226 341.005C342.085 340.146 343.077 339.502 344.135 339.073C345.194 338.644 346.319 338.429 347.444 338.429C348.569 338.429 349.695 338.644 350.753 339.073C351.811 339.502 352.803 340.146 353.662 341.004C354.52 341.863 355.164 342.855 355.593 343.913ZM401.951 287.395L402.503 281.646C402.508 281.594 402.48 281.553 402.441 281.533C402.402 281.513 402.352 281.515 402.313 281.549L397.987 285.375L393.661 289.201C393.634 289.225 393.599 289.234 393.567 289.228C393.535 289.223 393.504 289.204 393.486 289.173L390.554 284.198L387.623 279.223C387.596 279.178 387.549 279.161 387.506 279.167C387.462 279.174 387.423 279.205 387.411 279.256L386.161 284.894L384.91 290.532C384.902 290.567 384.879 290.594 384.85 290.609C384.82 290.624 384.785 290.627 384.752 290.612L379.455 288.31L374.159 286.008C374.111 285.987 374.063 286.001 374.032 286.032C374.001 286.063 373.987 286.112 374.008 286.159L376.31 291.456L378.612 296.752C378.626 296.785 378.624 296.821 378.609 296.85C378.594 296.879 378.567 296.902 378.531 296.91L372.894 298.161L367.256 299.412C367.205 299.423 367.174 299.463 367.167 299.506C367.16 299.549 367.177 299.596 367.222 299.623L372.198 302.555L377.173 305.486C377.204 305.505 377.223 305.535 377.228 305.567C377.233 305.6 377.225 305.634 377.201 305.661L373.375 309.987L369.549 314.313C369.514 314.352 369.513 314.402 369.532 314.441C369.553 314.48 369.594 314.508 369.646 314.504L375.394 313.951L381.143 313.398C381.179 313.395 381.212 313.408 381.235 313.431C381.258 313.455 381.272 313.488 381.268 313.524L380.715 319.272L380.163 325.02C380.158 325.072 380.186 325.114 380.225 325.134C380.264 325.154 380.314 325.152 380.353 325.118L384.679 321.292L389.005 317.466C389.032 317.442 389.067 317.433 389.099 317.438C389.131 317.443 389.162 317.462 389.18 317.493L392.112 322.469L395.043 327.444C395.07 327.489 395.117 327.506 395.16 327.499C395.204 327.492 395.243 327.462 395.255 327.411L396.505 321.773L397.756 316.135C397.764 316.1 397.787 316.072 397.816 316.058C397.846 316.043 397.881 316.04 397.914 316.055L403.211 318.356L408.507 320.659C408.555 320.679 408.603 320.665 408.634 320.634C408.665 320.603 408.679 320.555 408.658 320.507L406.356 315.211L404.054 309.915C404.04 309.882 404.042 309.846 404.057 309.817C404.072 309.787 404.099 309.764 404.135 309.757L409.772 308.506L415.41 307.255C415.461 307.244 415.492 307.204 415.499 307.161C415.506 307.117 415.489 307.07 415.444 307.044L410.468 304.112L405.493 301.18C405.462 301.162 405.443 301.132 405.438 301.099C405.433 301.067 405.441 301.032 405.465 301.005L409.291 296.679L413.117 292.354C413.152 292.315 413.153 292.264 413.134 292.225C413.114 292.186 413.072 292.158 413.02 292.163L407.272 292.716L401.523 293.268C401.487 293.272 401.454 293.259 401.431 293.235C401.408 293.212 401.394 293.179 401.398 293.143L401.951 287.395ZM399.482 300.025C399.911 301.083 400.126 302.208 400.126 303.333C400.126 304.459 399.911 305.584 399.482 306.642C399.053 307.701 398.409 308.692 397.551 309.551C396.692 310.409 395.7 311.053 394.642 311.483C393.583 311.912 392.458 312.126 391.333 312.127C390.208 312.126 389.083 311.912 388.024 311.483C386.966 311.053 385.974 310.41 385.115 309.551C384.257 308.693 383.613 307.701 383.184 306.642C382.755 305.584 382.54 304.459 382.54 303.333C382.54 302.208 382.755 301.083 383.184 300.025C383.613 298.966 384.257 297.974 385.115 297.116C385.974 296.257 386.966 295.613 388.024 295.184C389.083 294.755 390.208 294.54 391.333 294.54C392.458 294.54 393.583 294.755 394.642 295.184C395.7 295.613 396.692 296.257 397.551 297.116C398.409 297.974 399.053 298.966 399.482 300.025ZM445.839 243.506L446.392 237.757C446.397 237.705 446.369 237.664 446.33 237.644C446.291 237.624 446.241 237.626 446.202 237.66L441.876 241.486L437.55 245.312C437.523 245.336 437.488 245.345 437.456 245.339C437.423 245.334 437.393 245.315 437.375 245.284L434.443 240.309L431.512 235.334C431.485 235.289 431.438 235.272 431.395 235.279C431.351 235.285 431.311 235.316 431.3 235.367L430.049 241.005L428.799 246.643C428.791 246.678 428.768 246.705 428.739 246.72C428.709 246.735 428.674 246.738 428.641 246.723L423.344 244.421L418.048 242.119C418 242.098 417.952 242.112 417.921 242.143C417.89 242.174 417.876 242.223 417.897 242.27L420.199 247.567L422.501 252.863C422.515 252.896 422.513 252.932 422.498 252.961C422.483 252.99 422.455 253.013 422.42 253.021L416.782 254.272L411.145 255.523C411.094 255.534 411.063 255.574 411.056 255.617C411.049 255.66 411.066 255.708 411.111 255.734L416.087 258.666L421.062 261.597C421.093 261.616 421.112 261.646 421.117 261.678C421.122 261.711 421.114 261.745 421.09 261.773L417.264 266.098L413.438 270.424C413.403 270.463 413.402 270.513 413.421 270.552C413.441 270.592 413.483 270.62 413.535 270.615L419.283 270.062L425.032 269.509C425.068 269.506 425.101 269.519 425.124 269.542C425.147 269.566 425.161 269.599 425.157 269.635L424.604 275.383L424.052 281.132C424.047 281.183 424.075 281.225 424.114 281.245C424.153 281.265 424.203 281.263 424.242 281.229L428.568 277.403L432.894 273.577C432.921 273.553 432.955 273.544 432.988 273.549C433.02 273.554 433.051 273.573 433.069 273.604L436.001 278.58L438.932 283.555C438.959 283.6 439.006 283.617 439.049 283.61C439.093 283.604 439.132 283.573 439.144 283.522L440.394 277.884L441.645 272.246C441.653 272.211 441.676 272.184 441.705 272.169C441.735 272.154 441.77 272.151 441.803 272.166L447.1 274.468L452.396 276.77C452.444 276.79 452.492 276.777 452.523 276.745C452.554 276.715 452.568 276.666 452.547 276.619L450.245 271.322L447.943 266.026C447.929 265.993 447.931 265.957 447.946 265.928C447.961 265.899 447.988 265.875 448.024 265.868L453.661 264.617L459.299 263.366C459.35 263.355 459.381 263.315 459.388 263.272C459.395 263.229 459.378 263.181 459.333 263.155L454.357 260.223L449.382 257.291C449.351 257.273 449.332 257.243 449.327 257.21C449.322 257.178 449.33 257.143 449.354 257.116L453.18 252.791L457.006 248.465C457.041 248.426 457.042 248.376 457.022 248.336C457.002 248.297 456.961 248.269 456.909 248.274L451.161 248.827L445.412 249.38C445.376 249.383 445.343 249.37 445.32 249.346C445.297 249.323 445.283 249.29 445.287 249.254L445.839 243.506ZM443.371 256.136C443.8 257.194 444.015 258.319 444.015 259.444C444.015 260.57 443.8 261.695 443.371 262.753C442.942 263.812 442.298 264.804 441.44 265.662C440.581 266.521 439.589 267.165 438.531 267.594C437.472 268.023 436.347 268.238 435.222 268.238C434.097 268.238 432.972 268.023 431.913 267.594C430.855 267.165 429.863 266.521 429.004 265.662C428.146 264.804 427.502 263.812 427.073 262.753C426.643 261.695 426.429 260.57 426.429 259.444C426.429 258.319 426.643 257.194 427.073 256.136C427.502 255.077 428.146 254.085 429.004 253.227C429.863 252.368 430.855 251.724 431.913 251.295C432.972 250.866 434.097 250.651 435.222 250.651C436.347 250.651 437.472 250.866 438.531 251.295C439.589 251.724 440.581 252.368 441.44 253.227C442.298 254.085 442.942 255.077 443.371 256.136ZM489.728 199.617L490.281 193.868C490.286 193.817 490.258 193.775 490.219 193.755C490.18 193.735 490.13 193.737 490.09 193.771L485.765 197.597L481.439 201.423C481.412 201.447 481.377 201.456 481.345 201.451C481.312 201.446 481.282 201.427 481.264 201.395L478.332 196.42L475.4 191.445C475.374 191.4 475.327 191.383 475.283 191.39C475.24 191.396 475.2 191.427 475.189 191.478L473.938 197.116L472.688 202.754C472.68 202.789 472.657 202.816 472.627 202.831C472.598 202.846 472.563 202.849 472.53 202.834L467.233 200.532L461.937 198.23C461.889 198.21 461.841 198.223 461.81 198.254C461.779 198.286 461.765 198.334 461.786 198.382L464.088 203.678L466.39 208.974C466.404 209.007 466.401 209.043 466.387 209.072C466.372 209.101 466.344 209.124 466.309 209.132L460.671 210.383L455.033 211.634C454.983 211.645 454.952 211.685 454.945 211.728C454.938 211.771 454.955 211.819 455 211.845L459.975 214.777L464.951 217.709C464.982 217.727 465.001 217.757 465.006 217.79C465.011 217.822 465.002 217.857 464.979 217.884L461.153 222.209L457.327 226.535C457.292 226.574 457.29 226.624 457.31 226.664C457.33 226.703 457.372 226.731 457.424 226.726L463.172 226.173L468.921 225.62C468.956 225.617 468.99 225.63 469.013 225.654C469.036 225.677 469.049 225.71 469.046 225.746L468.493 231.494L467.941 237.243C467.936 237.294 467.964 237.336 468.003 237.356C468.042 237.376 468.092 237.374 468.131 237.34L472.457 233.514L476.783 229.688C476.81 229.664 476.844 229.655 476.877 229.661C476.909 229.666 476.94 229.685 476.958 229.716L479.89 234.691L482.821 239.666C482.848 239.711 482.895 239.728 482.938 239.721C482.982 239.715 483.021 239.684 483.033 239.633L484.283 233.995L485.534 228.357C485.542 228.322 485.565 228.295 485.594 228.28C485.623 228.265 485.659 228.262 485.692 228.277L490.988 230.579L496.285 232.881C496.333 232.902 496.381 232.888 496.412 232.857C496.443 232.826 496.457 232.777 496.436 232.73L494.134 227.433L491.832 222.137C491.818 222.104 491.82 222.068 491.835 222.039C491.85 222.01 491.877 221.987 491.913 221.979L497.55 220.728L503.188 219.477C503.239 219.466 503.27 219.426 503.277 219.383C503.284 219.34 503.267 219.292 503.222 219.266L498.246 216.334L493.271 213.403C493.24 213.384 493.221 213.354 493.216 213.322C493.211 213.289 493.219 213.254 493.243 213.227L497.069 208.902L500.895 204.576C500.929 204.537 500.931 204.487 500.911 204.448C500.891 204.408 500.85 204.38 500.798 204.385L495.049 204.938L489.301 205.491C489.265 205.494 489.232 205.481 489.209 205.458C489.186 205.434 489.172 205.401 489.176 205.365L489.728 199.617ZM487.26 212.247C487.689 213.305 487.904 214.43 487.904 215.556C487.904 216.681 487.689 217.806 487.26 218.864C486.831 219.923 486.187 220.915 485.328 221.773C484.47 222.632 483.478 223.276 482.42 223.705C481.361 224.134 480.236 224.349 479.111 224.349C477.986 224.349 476.86 224.134 475.802 223.705C474.743 223.276 473.752 222.632 472.893 221.773C472.035 220.915 471.391 219.923 470.962 218.864C470.532 217.806 470.318 216.681 470.318 215.556C470.318 214.43 470.532 213.305 470.962 212.247C471.391 211.188 472.035 210.196 472.893 209.338C473.752 208.479 474.743 207.835 475.802 207.406C476.86 206.977 477.986 206.762 479.111 206.762C480.236 206.762 481.361 206.977 482.42 207.406C483.478 207.835 484.47 208.479 485.329 209.338C486.187 210.196 486.831 211.188 487.26 212.247ZM533.617 155.728L534.17 149.98C534.175 149.928 534.147 149.886 534.108 149.866C534.069 149.846 534.018 149.848 533.979 149.882L529.654 153.708L525.328 157.534C525.301 157.558 525.266 157.567 525.234 157.562C525.201 157.557 525.171 157.538 525.153 157.507L522.221 152.531L519.289 147.556C519.263 147.511 519.216 147.494 519.172 147.501C519.129 147.508 519.089 147.538 519.078 147.589L517.827 153.227L516.576 158.865C516.569 158.9 516.546 158.928 516.516 158.942C516.487 158.957 516.452 158.96 516.418 158.945L511.122 156.643L505.826 154.341C505.778 154.321 505.73 154.335 505.699 154.366C505.668 154.397 505.654 154.445 505.674 154.493L507.977 159.789L510.278 165.085C510.293 165.118 510.29 165.154 510.275 165.183C510.261 165.213 510.233 165.236 510.198 165.243L504.56 166.494L498.922 167.745C498.871 167.756 498.841 167.796 498.834 167.839C498.827 167.883 498.844 167.93 498.889 167.956L503.864 170.888L508.84 173.82C508.871 173.838 508.89 173.868 508.895 173.901C508.9 173.933 508.891 173.968 508.867 173.995L505.041 178.32L501.215 182.646C501.181 182.685 501.179 182.736 501.199 182.775C501.219 182.814 501.261 182.842 501.313 182.837L507.061 182.284L512.809 181.732C512.845 181.728 512.878 181.741 512.902 181.765C512.925 181.788 512.938 181.821 512.935 181.857L512.382 187.605L511.829 193.354C511.825 193.406 511.853 193.447 511.892 193.467C511.931 193.487 511.981 193.485 512.02 193.451L516.346 189.625L520.672 185.799C520.699 185.775 520.733 185.766 520.766 185.772C520.798 185.777 520.829 185.796 520.847 185.827L523.778 190.802L526.71 195.777C526.737 195.822 526.784 195.839 526.827 195.833C526.871 195.826 526.91 195.795 526.921 195.744L528.172 190.106L529.423 184.468C529.431 184.433 529.454 184.406 529.483 184.391C529.512 184.376 529.548 184.373 529.581 184.388L534.877 186.69L540.174 188.992C540.221 189.013 540.27 188.999 540.301 188.968C540.332 188.937 540.346 188.889 540.325 188.841L538.023 183.544L535.721 178.248C535.706 178.215 535.709 178.179 535.724 178.15C535.739 178.121 535.766 178.098 535.801 178.09L541.439 176.839L547.077 175.588C547.128 175.577 547.159 175.537 547.166 175.494C547.172 175.451 547.155 175.404 547.111 175.377L542.135 172.445L537.16 169.514C537.129 169.495 537.11 169.465 537.105 169.433C537.099 169.4 537.108 169.366 537.132 169.338L540.958 165.013L544.784 160.687C544.818 160.648 544.82 160.598 544.8 160.559C544.78 160.52 544.739 160.491 544.687 160.496L538.938 161.049L533.19 161.602C533.154 161.605 533.121 161.592 533.098 161.569C533.074 161.545 533.061 161.512 533.065 161.476L533.617 155.728ZM531.149 168.358C531.578 169.416 531.793 170.541 531.793 171.667C531.793 172.792 531.578 173.917 531.149 174.975C530.72 176.034 530.076 177.026 529.217 177.884C528.359 178.743 527.367 179.387 526.309 179.816C525.25 180.245 524.125 180.46 523 180.46C521.875 180.46 520.749 180.245 519.691 179.816C518.632 179.387 517.64 178.743 516.782 177.884C515.923 177.026 515.28 176.034 514.85 174.975C514.421 173.917 514.207 172.792 514.206 171.667C514.207 170.541 514.421 169.416 514.85 168.358C515.28 167.299 515.924 166.308 516.782 165.449C517.641 164.591 518.632 163.947 519.691 163.517C520.749 163.088 521.875 162.874 523 162.873C524.125 162.874 525.25 163.088 526.309 163.517C527.367 163.947 528.359 164.59 529.217 165.449C530.076 166.307 530.72 167.299 531.149 168.358ZM582.827 117.16L577.079 117.713C577.043 117.716 577.01 117.703 576.987 117.68C576.963 117.657 576.95 117.623 576.953 117.588L577.506 111.839L578.059 106.091C578.064 106.039 578.036 105.997 577.997 105.977C577.957 105.957 577.907 105.959 577.868 105.993L573.542 109.82L569.217 113.645C569.19 113.669 569.155 113.678 569.123 113.673C569.09 113.668 569.06 113.649 569.042 113.618L566.11 108.642L563.178 103.667C563.152 103.622 563.104 103.605 563.061 103.612C563.018 103.619 562.978 103.649 562.967 103.7L561.716 109.338L560.465 114.976C560.458 115.011 560.434 115.039 560.405 115.054C560.376 115.068 560.34 115.071 560.307 115.057L555.011 112.755L549.715 110.453C549.667 110.432 549.618 110.446 549.588 110.477C549.556 110.508 549.543 110.556 549.563 110.604L551.865 115.9L554.167 121.196C554.182 121.23 554.179 121.265 554.164 121.294C554.149 121.324 554.122 121.347 554.087 121.355L548.449 122.605L542.811 123.856C542.76 123.867 542.729 123.907 542.723 123.95C542.716 123.994 542.733 124.041 542.778 124.067L547.753 126.999L552.729 129.931C552.76 129.949 552.779 129.979 552.784 130.012C552.789 130.044 552.78 130.079 552.756 130.106L548.93 134.432L545.104 138.757C545.07 138.796 545.068 138.847 545.088 138.886C545.108 138.925 545.15 138.953 545.202 138.948L550.95 138.395L556.698 137.843C556.734 137.839 556.767 137.852 556.791 137.876C556.814 137.899 556.827 137.932 556.824 137.968L556.271 143.716L555.718 149.465C555.713 149.517 555.741 149.558 555.781 149.578C555.82 149.598 555.87 149.596 555.909 149.562L560.235 145.736L564.56 141.91C564.588 141.886 564.622 141.877 564.655 141.883C564.687 141.888 564.717 141.907 564.736 141.938L567.667 146.913L570.599 151.889C570.625 151.933 570.673 151.95 570.716 151.944C570.759 151.937 570.799 151.906 570.81 151.855L572.061 146.217L573.312 140.579C573.32 140.544 573.343 140.517 573.372 140.502C573.401 140.487 573.437 140.485 573.47 140.499L578.766 142.801L584.063 145.103C584.11 145.124 584.159 145.11 584.19 145.079C584.221 145.048 584.235 145 584.214 144.952L581.912 139.655L579.61 134.359C579.595 134.326 579.598 134.29 579.613 134.261C579.628 134.232 579.655 134.209 579.69 134.201L585.328 132.95L590.966 131.699C591.017 131.688 591.048 131.649 591.054 131.605C591.061 131.562 591.044 131.515 590.999 131.488L586.024 128.557L581.049 125.625C581.018 125.607 580.999 125.576 580.994 125.544C580.988 125.511 580.997 125.477 581.021 125.45L584.847 121.124L588.673 116.798C588.707 116.759 588.709 116.709 588.689 116.67C588.669 116.631 588.628 116.603 588.576 116.608L582.827 117.16ZM575.038 124.469C575.467 125.527 575.682 126.653 575.682 127.778C575.682 128.903 575.467 130.028 575.038 131.087C574.609 132.145 573.965 133.137 573.106 133.995C572.248 134.854 571.256 135.498 570.197 135.927C569.139 136.356 568.014 136.571 566.889 136.571C565.763 136.571 564.638 136.356 563.58 135.927C562.521 135.498 561.529 134.854 560.671 133.995C559.812 133.137 559.168 132.145 558.739 131.087C558.31 130.028 558.095 128.903 558.095 127.778C558.095 126.653 558.31 125.527 558.739 124.469C559.169 123.41 559.812 122.419 560.671 121.56C561.529 120.702 562.521 120.058 563.58 119.629C564.638 119.199 565.763 118.985 566.889 118.985C568.014 118.985 569.139 119.199 570.197 119.629C571.256 120.058 572.248 120.702 573.106 121.56C573.965 122.419 574.609 123.41 575.038 124.469Z" fill="#320073"/>
<path d="M523 40L128 435L171.889 478.889L566.889 83.8889L523 40Z" fill="#320073"/>
<path d="M165.72 437.555C163.487 437.555 161.254 436.704 159.55 435C157.847 433.296 156.995 431.064 156.995 428.831C156.995 426.598 157.847 424.365 159.55 422.662C161.254 420.958 163.487 420.106 165.72 420.106C167.952 420.106 170.185 420.958 171.889 422.662C173.592 424.365 174.444 426.598 174.444 428.831C174.444 431.064 173.592 433.296 171.889 435C170.185 436.704 167.953 437.555 165.72 437.555ZM215.778 391.111C217.481 389.408 218.333 387.175 218.333 384.942C218.333 382.709 217.481 380.476 215.778 378.773C214.074 377.069 211.841 376.217 209.609 376.217C207.376 376.217 205.143 377.069 203.439 378.773C201.736 380.476 200.884 382.709 200.884 384.942C200.884 387.175 201.736 389.408 203.439 391.111C205.143 392.815 207.376 393.666 209.608 393.667C211.841 393.666 214.074 392.815 215.778 391.111ZM259.667 347.222C261.37 345.519 262.222 343.286 262.222 341.053C262.222 338.82 261.37 336.587 259.667 334.884C257.963 333.18 255.73 332.329 253.497 332.328C251.265 332.329 249.032 333.18 247.328 334.884C245.625 336.587 244.773 338.82 244.773 341.053C244.773 343.286 245.625 345.519 247.328 347.222C249.032 348.926 251.265 349.778 253.497 349.778C255.73 349.778 257.963 348.926 259.667 347.222ZM303.555 303.333C305.259 301.63 306.111 299.397 306.111 297.164C306.111 294.931 305.259 292.699 303.555 290.995C301.852 289.291 299.619 288.44 297.386 288.44C295.153 288.44 292.921 289.291 291.217 290.995C289.513 292.699 288.662 294.931 288.662 297.164C288.662 299.397 289.513 301.63 291.217 303.333C292.921 305.037 295.154 305.889 297.386 305.889C299.619 305.889 301.852 305.037 303.555 303.333ZM347.444 259.444C349.148 257.741 350 255.508 350 253.275C350 251.043 349.148 248.81 347.444 247.106C345.741 245.402 343.508 244.551 341.275 244.551C339.042 244.551 336.81 245.402 335.106 247.106C333.402 248.81 332.551 251.042 332.551 253.275C332.551 255.508 333.402 257.741 335.106 259.444C336.81 261.148 339.042 262 341.275 262C343.508 262 345.741 261.148 347.444 259.444ZM391.333 215.556C393.037 213.852 393.889 211.619 393.889 209.386C393.889 207.154 393.037 204.921 391.333 203.217C389.63 201.514 387.397 200.662 385.164 200.662C382.931 200.662 380.698 201.514 378.995 203.217C377.291 204.921 376.44 207.154 376.44 209.386C376.44 211.619 377.291 213.852 378.995 215.556C380.698 217.259 382.931 218.111 385.164 218.111C387.397 218.111 389.63 217.259 391.333 215.556ZM435.222 171.667C436.926 169.963 437.777 167.73 437.778 165.497C437.777 163.265 436.926 161.032 435.222 159.328C433.519 157.625 431.286 156.773 429.053 156.773C426.82 156.773 424.587 157.625 422.884 159.328C421.18 161.032 420.329 163.265 420.328 165.498C420.329 167.73 421.18 169.963 422.884 171.667C424.587 173.37 426.82 174.222 429.053 174.222C431.286 174.222 433.519 173.37 435.222 171.667ZM479.111 127.778C480.815 126.074 481.666 123.841 481.666 121.609C481.666 119.376 480.815 117.143 479.111 115.439C477.407 113.736 475.175 112.884 472.942 112.884C470.709 112.884 468.476 113.736 466.773 115.439C465.069 117.143 464.217 119.376 464.217 121.609C464.217 123.841 465.069 126.074 466.773 127.778C468.476 129.481 470.709 130.333 472.942 130.333C475.175 130.333 477.407 129.481 479.111 127.778ZM523 83.8889C524.704 82.1853 525.555 79.9526 525.555 77.7197C525.555 75.487 524.704 73.2541 523 71.5505C521.296 69.8469 519.064 68.9953 516.831 68.9952C514.598 68.9953 512.365 69.8469 510.662 71.5505C508.958 73.2541 508.106 75.4869 508.106 77.7198C508.106 79.9525 508.958 82.1853 510.662 83.8889C512.365 85.5925 514.598 86.4442 516.831 86.4443C519.064 86.4442 521.296 85.5925 523 83.8889ZM539.447 56.5621L539.47 78.4141L539.492 100.266C539.492 100.298 539.479 100.327 539.458 100.347C539.438 100.368 539.409 100.381 539.377 100.381L517.525 100.359L495.673 100.336C495.641 100.336 495.613 100.349 495.592 100.37C495.571 100.39 495.558 100.419 495.558 100.451L495.581 122.303L495.603 144.155C495.603 144.187 495.59 144.215 495.569 144.236C495.549 144.257 495.52 144.27 495.488 144.27L473.636 144.247L451.784 144.225C451.753 144.225 451.724 144.238 451.703 144.259C451.682 144.279 451.669 144.308 451.669 144.34L451.692 166.192L451.714 188.044C451.714 188.075 451.701 188.104 451.681 188.125C451.66 188.146 451.631 188.159 451.599 188.159L429.747 188.136L407.895 188.114C407.864 188.114 407.835 188.127 407.814 188.147C407.793 188.168 407.78 188.197 407.78 188.229L407.803 210.081L407.825 231.933C407.825 231.964 407.812 231.993 407.792 232.014C407.771 232.035 407.742 232.048 407.71 232.048L385.858 232.025L364.007 232.003C363.975 232.003 363.946 232.016 363.925 232.036C363.904 232.057 363.891 232.086 363.891 232.118L363.914 253.97L363.936 275.821C363.937 275.853 363.924 275.882 363.903 275.903C363.882 275.924 363.853 275.937 363.821 275.937L341.97 275.914L320.118 275.892C320.086 275.892 320.057 275.904 320.036 275.925C320.016 275.946 320.003 275.975 320.003 276.007L320.025 297.859L320.048 319.71C320.048 319.742 320.035 319.771 320.014 319.792C319.993 319.813 319.964 319.826 319.932 319.825L298.081 319.803L276.229 319.78C276.197 319.78 276.168 319.793 276.147 319.814C276.127 319.835 276.114 319.864 276.114 319.895L276.136 341.747L276.159 363.599C276.159 363.631 276.146 363.66 276.125 363.681C276.104 363.701 276.075 363.714 276.044 363.714L254.192 363.692L232.34 363.669C232.308 363.669 232.279 363.682 232.259 363.703C232.238 363.724 232.225 363.753 232.225 363.784L232.247 385.636L232.27 407.488C232.27 407.52 232.257 407.549 232.236 407.57C232.215 407.59 232.187 407.603 232.155 407.603L210.303 407.581L188.451 407.558C188.419 407.558 188.39 407.571 188.37 407.592C188.349 407.613 188.336 407.642 188.336 407.673L188.358 429.525L188.381 451.377C188.381 451.409 188.368 451.438 188.347 451.458C188.326 451.479 188.298 451.492 188.266 451.492L166.414 451.47L144.562 451.447C144.53 451.447 144.502 451.46 144.481 451.481L171.889 478.889L566.889 83.8889L539.481 56.4808C539.46 56.5016 539.447 56.5304 539.447 56.5621Z" fill="#FF00A5"/>
</g>
</g>
<defs>
<clipPath id="clip0_101_2508">
<rect width="400" height="400" fill="white"/>
</clipPath>
<clipPath id="clip1_101_2508">
<rect width="558.614" height="186.205" fill="white" transform="translate(128 435) rotate(-45)"/>
</clipPath>
</defs>
</svg>
