<svg width="167" height="62" viewBox="0 0 167 62" fill="none" xmlns="http://www.w3.org/2000/svg">
<path d="M38.7119 32.0684H42.8518L42.6713 40.2773V47.0936H38.953L38.9126 40.2757L38.7119 32.0684ZM56.7619 40.53L50.4302 32.0684H45.1516V32.5316L47.4853 35.5774L45.0904 47.0936H49.1968L50.3096 38.0741L57.2792 47.0936H60.0973V42.7185L60.5176 32.0684H56.3941L56.7619 40.53ZM78.3948 39.2635C78.3948 44.1664 74.9189 47.0936 69.0969 47.0936H63.2512L63.2109 40.1566L63.0101 32.0684H69.0176C74.977 32.0684 78.3948 34.691 78.3948 39.2635ZM74.2195 39.5017C74.2195 36.8717 72.2244 35.1726 69.1367 35.1726H67.0685L67.0492 44.1837L69.3906 44.0887C72.4142 43.9692 74.2195 42.2544 74.2195 39.5017ZM80.5088 40.2757L80.5491 47.0936H84.2675V40.2773L84.448 32.0684H80.3081L80.5088 40.2757ZM97.4281 32.0684L103.434 47.0936H99.0046L98.0724 44.5744H91.1407L90.1489 47.0936H86.0134L91.3716 34.8376L90.5122 32.5325L90.5063 32.0684H97.4281ZM96.8928 41.3723L94.7426 35.4825L92.4053 41.4095L96.8928 41.3723ZM116.392 43.0914C119.522 41.0769 120.918 39.101 120.918 36.6851C120.918 33.4353 118.665 31.7874 114.22 31.7874C114.108 31.7874 113.995 31.7886 113.881 31.7907C112.036 31.8093 110.241 32.15 108.827 32.7502L108.769 32.7746V36.7623L108.908 36.6889C110.697 35.7388 112.11 35.3512 113.782 35.3512C115.142 35.3512 116.763 35.6823 116.763 37.2602C116.763 38.5662 115.821 39.4913 112.992 41.6082L109.067 44.5521V47.0936H121.553V43.2859L115.15 43.894L116.392 43.0914ZM138.532 39.4421C138.532 44.1609 135.353 47.3316 130.622 47.3316C125.844 47.3316 122.634 44.2407 122.634 39.6405C122.634 35.0689 126.002 31.7509 130.642 31.7509C135.361 31.7509 138.532 34.8418 138.532 39.4421ZM134.356 39.5017C134.356 36.8292 132.816 35.0338 130.523 35.0338C128.244 35.0338 126.829 36.8216 126.829 39.6999C126.829 42.39 128.357 44.1283 130.722 44.1283C132.963 44.1283 134.356 42.3555 134.356 39.5017ZM147.529 43.0914C150.659 41.0769 152.055 39.101 152.055 36.6851C152.055 33.4353 149.801 31.7874 145.357 31.7874C145.245 31.7874 145.131 31.7886 145.018 31.7907C143.173 31.8093 141.378 32.15 139.963 32.7502L139.906 32.7746V36.7623L140.044 36.6889C141.834 35.7388 143.246 35.3512 144.919 35.3512C146.279 35.3512 147.9 35.6823 147.9 37.2602C147.9 38.5662 146.958 39.4913 144.129 41.6082L140.203 44.5521V47.0936H152.69V43.2859L146.286 43.894L147.529 43.0914ZM164.344 38.8067C165.909 38.2669 166.702 37.2007 166.702 35.6337C166.702 33.0937 164.365 31.7509 159.943 31.7509C158.015 31.7509 155.798 32.2581 154.555 32.7291L154.494 32.752V36.4749L154.627 36.4135C155.453 36.0345 157.616 35.1528 159.864 35.1528C161.631 35.1528 162.527 35.6816 162.527 36.7246C162.527 37.5568 161.766 38.138 160.677 38.138H156.894V41.3905L160.491 41.0429C160.645 41.0238 160.78 41.019 160.883 41.019C160.951 41.019 161.094 41.024 161.094 41.024C161.883 41.024 162.825 41.2553 162.825 42.3578C162.825 43.1453 162.495 44.0489 159.924 44.0489C157.607 44.0489 156.026 43.3972 154.908 42.8294L154.771 42.76V46.3883L154.83 46.4122C155.856 46.8272 157.806 47.3118 159.924 47.3118C164.317 47.3118 166.94 45.4821 166.94 42.4174C166.94 40.6293 166.044 39.3865 164.344 38.8067ZM126.035 25.0181C126.035 23.2391 127.312 21.9482 129.072 21.9482C130.855 21.9482 132.1 23.2106 132.1 25.0181C132.1 26.7972 130.827 28.0881 129.072 28.0881C127.312 28.0881 126.035 26.7972 126.035 25.0181ZM127.22 25.0181C127.22 26.1675 127.999 27.0018 129.072 27.0018C130.118 27.0018 130.907 26.149 130.907 25.0181C130.907 23.8688 130.135 23.0345 129.072 23.0345C127.999 23.0345 127.22 23.8688 127.22 25.0181ZM155.984 27.3143L155.393 26.3696L155.325 26.4258C154.847 26.8178 154.374 26.9854 153.742 26.9854C152.582 26.9854 151.832 26.2196 151.832 25.0345C151.832 23.8432 152.566 23.043 153.659 23.043C154.442 23.043 154.939 23.4143 155.217 23.726L155.275 23.7903L156.04 22.9396L155.991 22.888C155.422 22.2818 154.621 21.9482 153.733 21.9482C151.882 21.9482 150.639 23.1883 150.639 25.0345C150.639 26.861 151.856 28.0881 153.668 28.0881C154.605 28.0881 155.453 27.8155 155.938 27.358L155.984 27.3143ZM87.8742 28.0221H86.7224V22.0142H88.9597C90.3014 22.0142 91.0399 22.6913 91.0399 23.9218C91.0399 24.7737 90.6081 25.3874 89.8208 25.663C90.4829 26.3368 90.9282 27.0173 91.2978 27.9154L91.3424 28.0221H90.0636L90.0426 27.9772C89.6469 27.1194 89.2117 26.5073 88.5909 25.9364H87.8742V28.0221ZM87.8742 24.8833H88.7446C89.4495 24.8833 89.8544 24.551 89.8544 23.9713C89.8544 23.392 89.4739 23.0593 88.811 23.0593H87.8742V24.8833ZM93.2764 22.0142H92.1245V28.0221H93.2764V22.0142ZM112.311 28.0221H113.464V23.0593H115.145V22.0142H110.654V23.0593H112.311V28.0221ZM97.1218 28.0881C98.0585 28.0881 98.9071 27.8155 99.3919 27.358L99.4381 27.3143L98.8466 26.3696L98.7785 26.4258C98.3013 26.8178 97.8283 26.9854 97.1957 26.9854C96.0355 26.9854 95.286 26.2196 95.286 25.0345C95.286 23.8432 96.0203 23.043 97.1134 23.043C97.8964 23.043 98.3929 23.4143 98.671 23.726L98.729 23.7903L99.4935 22.9396L99.4448 22.888C98.876 22.2818 98.0745 21.9482 97.1873 21.9482C95.3364 21.9482 94.093 23.1883 94.093 25.0345C94.093 26.861 95.3104 28.0881 97.1218 28.0881ZM110.03 26.9774H106.905V25.5655H109.658V24.5204H106.905V23.0593H109.915V22.0142H105.753V28.0221H110.03V26.9774ZM142.452 26.9774H139.492V22.0142H138.34V28.0221H142.452V26.9774ZM103.6 22.0142L101.389 24.7619V22.0142H100.237V28.0221H101.389V26.3082L102.098 25.4718C102.726 26.1347 103.393 27.1509 103.738 27.9747L103.758 28.0221H105.018L104.978 27.9175C104.567 26.8283 103.705 25.5058 102.868 24.6749L105.079 22.0142L103.6 22.0142ZM83.5983 23.043C84.3814 23.043 84.8779 23.4143 85.156 23.726L85.214 23.7903L85.9785 22.9396L85.9298 22.888C85.361 22.2818 84.5595 21.9482 83.6723 21.9482C81.8214 21.9482 80.578 23.1883 80.578 25.0345C80.578 26.861 81.7954 28.0881 83.6068 28.0881C84.5435 28.0881 85.3921 27.8155 85.8768 27.358L85.9231 27.3143L85.3316 26.3696L85.2635 26.4258C84.7863 26.8178 84.3133 26.9854 83.6807 26.9854C82.5204 26.9854 81.771 26.2196 81.771 25.0345C81.771 23.8432 82.5053 23.043 83.5983 23.043ZM134.069 28.0221H132.917V22.0142H135.154C136.496 22.0142 137.235 22.6913 137.235 23.9218C137.235 24.7737 136.803 25.3874 136.016 25.663C136.678 26.3368 137.123 27.0173 137.493 27.9154L137.537 28.0221H136.258L136.237 27.9772C135.842 27.1194 135.406 26.5073 134.786 25.9364H134.069V28.0221ZM134.069 24.8833H134.939C135.644 24.8833 136.049 24.551 136.049 23.9713C136.049 23.392 135.669 23.0593 135.006 23.0593H134.069V24.8833ZM123.021 28.0221H123.993L125.915 22.1154L125.948 22.0142H124.703L123.511 26.0877L122.445 22.0717L122.43 22.0142H121.256L120.151 26.0877L118.999 22.07L118.982 22.0142H117.73L119.633 27.9684L119.651 28.0221H120.615L121.841 23.7256L123.005 27.9654L123.021 28.0221ZM145.156 28.0221H143.19V22.0142H145.13C146.996 22.0142 148.25 23.2248 148.25 25.0265C148.25 26.8463 147.035 28.0221 145.156 28.0221ZM145.098 26.9774C146.256 26.9774 147.065 26.1751 147.065 25.0265C147.065 23.8684 146.276 23.0593 145.147 23.0593H144.342V26.9774H145.098ZM159.186 28.0881C160.722 28.0881 161.604 27.1887 161.604 25.6201V22.0142H160.46V25.5458C160.46 26.4657 159.996 26.9938 159.186 26.9938C158.386 26.9938 157.927 26.4657 157.927 25.5458V22.0142H156.784V25.6201C156.784 27.1887 157.659 28.0881 159.186 28.0881ZM163.816 28.0221H162.664V22.0142H164.859C166.182 22.0142 166.94 22.7333 166.94 23.9877C166.94 25.2261 166.14 25.9364 164.744 25.9364H163.816V28.0221ZM163.816 24.8833H164.645C165.361 24.8833 165.755 24.5594 165.755 23.9713C165.755 23.3832 165.387 23.0593 164.72 23.0593H163.816V24.8833ZM45.2707 26.8069C44.9316 26.9493 44.4212 27.0563 44.0564 27.0563C42.846 27.0563 42.4449 26.326 42.6992 25.0167C42.9257 23.8499 43.6419 23.0038 44.7633 23.0038C45.1727 23.0038 45.57 23.0661 45.9392 23.1819L46.2678 22.1309C45.8969 22.024 45.4535 21.9706 45.0263 21.9706C43.0149 21.9706 41.7585 23.3065 41.3884 25.2126C41.0978 26.7089 41.5027 28.1072 43.6031 28.1072C44.1638 28.1072 44.7274 28.0004 45.2036 27.84L45.2707 26.8069ZM41.0365 22.0152H39.8795L38.7119 28.027H39.8688L41.0365 22.0152ZM64.8782 26.9774H61.7537V25.5655H64.5069V24.5204H61.7537V23.0593H64.7631V22.0142H60.6019V28.0221H64.8782V26.9774ZM48.494 28.1072C49.0548 28.1072 49.6183 28.0004 50.0946 27.84L50.1617 26.8069C49.8226 26.9493 49.3123 27.0563 48.9473 27.0563C47.7371 27.0563 47.3359 26.326 47.5902 25.0167C47.8168 23.8499 48.533 23.0038 49.6543 23.0038C50.0638 23.0038 50.461 23.0661 50.83 23.1819L51.1588 22.1309C50.788 22.024 50.3445 21.9706 49.9173 21.9706C47.9059 21.9706 46.6497 23.3065 46.2795 25.2126C45.9888 26.7089 46.3937 28.1072 48.494 28.1072ZM76.017 27.0265C75.4432 27.0265 74.9273 26.8429 74.44 26.4657L74.3669 26.409L73.8233 27.4579L73.8788 27.497C74.414 27.8726 75.1844 28.0881 75.9926 28.0881C77.4503 28.0881 78.1888 27.4714 78.1888 26.2548C78.1888 25.09 77.3075 24.7787 76.1917 24.3847C75.4306 24.1141 75.1214 23.9889 75.1214 23.6084C75.1214 23.2231 75.4255 22.9934 75.9346 22.9934C76.4127 22.9934 77.0025 23.2181 77.4024 23.5525L77.4679 23.6075L78.1073 22.6623L78.0535 22.6174C77.5158 22.1734 76.8084 21.9482 75.9515 21.9482C74.7274 21.9482 73.9368 22.6354 73.9368 23.6991C73.9368 24.8787 74.8979 25.2021 75.7456 25.4874L75.9136 25.5436C76.6563 25.7911 76.9949 25.9037 76.9949 26.3783C76.9949 26.7783 76.6202 27.0265 76.017 27.0265ZM73.2974 22.0142H72.1405L71.8666 24.2544H72.7656L73.2974 22.0142ZM66.9786 24.0007L69.8066 27.9898L69.8293 28.0221L70.9273 28.022V22.0142H69.7839V26.1002L66.9316 22.0469L66.9089 22.0142H65.8352V28.0221H66.9786V24.0007ZM54.6029 24.3048L56.0656 26.8539L56.0883 26.8925H56.8285L58.3231 24.2902V28.0221H59.475V22.0142H58.355L56.463 25.45L54.5937 22.0541L54.571 22.0142H53.451V28.0221H54.6029V24.3048Z" fill="white"/>
<path d="M16.8262 31.4192C16.8333 31.4374 16.8341 31.4577 16.8286 31.4763C16.8229 31.4955 16.8106 31.5118 16.7941 31.5224C16.5443 31.6809 16.3394 32.0534 16.1851 32.6294C16.0563 33.1103 15.9959 33.6173 15.9714 33.8767C15.9696 33.8949 15.9551 33.9081 15.9369 33.9081C15.9187 33.9081 15.9041 33.8949 15.9024 33.8767C15.8779 33.6173 15.8176 33.1103 15.6887 32.6294C15.5344 32.0535 15.3295 31.6809 15.0798 31.5223C15.0632 31.5119 15.051 31.4956 15.0452 31.4763C15.0397 31.4577 15.0405 31.4374 15.0476 31.4192L15.8723 29.3026C15.8827 29.2757 15.9081 29.2583 15.9369 29.2583C15.9661 29.2583 15.9909 29.2753 16.0016 29.3026L16.8262 31.4192ZM8.05287 45.9033C8.0502 45.8844 8.04009 45.8684 8.02591 45.8577C8.01179 45.8471 7.99359 45.8418 7.97466 45.8444L6.58166 46.0383L5.18871 46.2321C5.16686 46.2352 5.14641 46.2277 5.1318 46.2141C5.11719 46.2005 5.10837 46.1806 5.10989 46.1586L5.21731 44.6192L5.32474 43.0797C5.32608 43.0606 5.31957 43.0428 5.30788 43.0293C5.29626 43.0159 5.27946 43.007 5.26035 43.0056L3.82485 42.9057L2.3893 42.8058C2.36599 42.8042 2.34682 42.7914 2.33556 42.7737C2.3243 42.756 2.32095 42.7333 2.32941 42.7115L2.94049 41.1343L3.55157 39.5571C3.55845 39.5393 3.55748 39.5204 3.55042 39.5042C3.54329 39.488 3.53003 39.4744 3.51225 39.4674L2.01754 38.8795L0.522766 38.2915C0.500611 38.2828 0.486004 38.2645 0.48083 38.2437C0.475718 38.223 0.480039 38.1999 0.495559 38.1818L1.7075 36.7711L2.91943 35.3605C2.93191 35.346 2.93733 35.3278 2.93605 35.3101C2.93471 35.2924 2.92667 35.2753 2.91219 35.2627L1.54079 34.078L0.169386 32.8933C0.150883 32.8773 0.143337 32.8546 0.145771 32.833C0.148266 32.8114 0.160683 32.7909 0.182289 32.7795L1.97956 31.8283L3.77689 30.8771C3.79357 30.8683 3.80519 30.8535 3.81055 30.8368C3.81585 30.8201 3.81487 30.8014 3.80641 30.7846L2.87573 28.9377L1.94505 27.0909C1.93422 27.0693 1.93574 27.0455 1.94609 27.0266C1.95637 27.0076 1.97542 26.9934 1.99946 26.9908L4.28505 26.7408L6.57058 26.4909C6.59048 26.4887 6.60746 26.4784 6.61854 26.4637C6.62968 26.4489 6.63491 26.4298 6.63138 26.41C6.59742 26.2194 6.50198 25.6675 6.39474 24.9085C6.2875 24.1494 6.16838 23.1832 6.08713 22.1641C6.08494 22.1363 6.06759 22.1153 6.04538 22.1056C6.02322 22.0958 5.99614 22.0974 5.97441 22.1148C4.15322 23.5752 2.65966 25.4272 1.62131 27.5431C0.583022 29.659 0 32.0389 0 34.5548C0 37.5764 0.840905 40.4017 2.30153 42.8093C3.7621 45.2168 5.84239 47.2067 8.32111 48.5577C8.34612 48.5714 8.37369 48.5677 8.39402 48.5535C8.41429 48.5394 8.42731 48.5147 8.42324 48.4864L8.23809 47.1949L8.05287 45.9033ZM5.50746 28.481C5.50746 28.0039 5.12066 27.6171 4.64354 27.6171C4.16643 27.6171 3.77963 28.0039 3.77963 28.481C3.77963 28.9581 4.16643 29.3449 4.64354 29.3449C5.12066 29.3449 5.50746 28.9581 5.50746 28.481ZM2.91286 32.3398C2.47682 32.3398 2.12332 32.6933 2.12332 33.1293C2.12332 33.5653 2.47682 33.9188 2.91286 33.9188C3.34889 33.9188 3.70233 33.5653 3.70233 33.1293C3.70233 32.6933 3.34889 32.3398 2.91286 32.3398ZM2.20884 37.6615C2.20884 38.0606 2.53233 38.384 2.93136 38.384C3.33039 38.384 3.65388 38.0606 3.65388 37.6615C3.65388 37.2624 3.33039 36.939 2.93136 36.939C2.53233 36.939 2.20884 37.2624 2.20884 37.6615ZM4.29558 42.2488C4.66126 42.2488 4.95773 41.9524 4.95773 41.5867C4.95773 41.221 4.66126 40.9245 4.29558 40.9245C3.92985 40.9245 3.63344 41.221 3.63344 41.5867C3.63344 41.9524 3.92985 42.2488 4.29558 42.2488ZM5.97222 44.65C5.97222 44.9857 6.2444 45.2579 6.58013 45.2579C6.91586 45.2579 7.18805 44.9857 7.18805 44.65C7.18805 44.3142 6.91586 44.042 6.58013 44.042C6.2444 44.042 5.97222 44.3142 5.97222 44.65ZM30.2525 27.5431C29.2142 25.4272 27.7205 23.5752 25.8994 22.1148C25.8777 22.0974 25.8506 22.0958 25.8284 22.1056C25.8062 22.1153 25.7889 22.1363 25.7867 22.1641C25.7054 23.1832 25.5863 24.1494 25.4791 24.9085C25.3718 25.6675 25.2764 26.2194 25.2424 26.41C25.2389 26.4298 25.2441 26.4489 25.2552 26.4637C25.2664 26.4784 25.2833 26.4887 25.3032 26.4909L27.5888 26.7408L29.8743 26.9908C29.8984 26.9934 29.9175 27.0076 29.9277 27.0266C29.938 27.0455 29.9396 27.0693 29.9287 27.0909L28.9981 28.9378L28.0674 30.7846C28.0589 30.8014 28.058 30.8201 28.0633 30.8369C28.0686 30.8535 28.0803 30.8683 28.0969 30.8771L29.8942 31.8283L31.6915 32.7795C31.7131 32.7909 31.7256 32.8114 31.728 32.833C31.7305 32.8546 31.7229 32.8773 31.7044 32.8933L30.333 34.078L28.9616 35.2627C28.9471 35.2753 28.9391 35.2924 28.9378 35.3101C28.9365 35.3278 28.9419 35.346 28.9543 35.3605L30.1663 36.7712L31.3783 38.1818C31.3938 38.1999 31.3981 38.223 31.3929 38.2437C31.3878 38.2645 31.3732 38.2828 31.351 38.2915L29.8563 38.8795L28.3616 39.4675C28.3438 39.4745 28.3305 39.488 28.3234 39.5042C28.3163 39.5204 28.3154 39.5393 28.3223 39.5571L28.9333 41.1343L29.5444 42.7115C29.5528 42.7333 29.5495 42.756 29.5383 42.7737C29.527 42.7915 29.5078 42.8042 29.4845 42.8058L28.049 42.9057L26.6135 43.0056C26.5943 43.007 26.5776 43.0159 26.5659 43.0293C26.5543 43.0428 26.5477 43.0606 26.5491 43.0797L26.6564 44.6192L26.7639 46.1586C26.7654 46.1806 26.7566 46.2005 26.742 46.2141C26.7274 46.2277 26.707 46.2352 26.6851 46.2321L25.2921 46.0383L23.8992 45.8444C23.8802 45.8418 23.862 45.8471 23.8478 45.8577C23.8337 45.8684 23.8236 45.8844 23.8209 45.9033L23.6357 47.1949L23.4506 48.4864C23.4465 48.5147 23.4595 48.5394 23.4798 48.5535C23.5001 48.5677 23.5276 48.5714 23.5527 48.5577C26.0314 47.2068 28.1117 45.2168 29.5723 42.8093C31.0329 40.4017 31.8738 37.5764 31.8738 34.5548C31.8738 32.0389 31.2908 29.659 30.2525 27.5431ZM27.2303 27.6171C26.7532 27.6171 26.3664 28.0039 26.3664 28.481C26.3664 28.9581 26.7532 29.3449 27.2303 29.3449C27.7074 29.3449 28.0942 28.9581 28.0942 28.481C28.0942 28.0039 27.7074 27.6171 27.2303 27.6171ZM29.7505 33.1293C29.7505 32.6933 29.397 32.3398 28.961 32.3398C28.5249 32.3398 28.1714 32.6933 28.1714 33.1293C28.1714 33.5653 28.5249 33.9188 28.961 33.9188C29.397 33.9188 29.7505 33.5653 29.7505 33.1293ZM28.9425 38.384C29.3415 38.384 29.665 38.0606 29.665 37.6615C29.665 37.2624 29.3415 36.939 28.9425 36.939C28.5434 36.939 28.2199 37.2624 28.2199 37.6615C28.2199 38.0606 28.5434 38.384 28.9425 38.384ZM27.5782 40.9245C27.2126 40.9245 26.9161 41.221 26.9161 41.5867C26.9161 41.9524 27.2126 42.2488 27.5782 42.2488C27.9439 42.2488 28.2404 41.9524 28.2404 41.5867C28.2404 41.221 27.9439 40.9245 27.5782 40.9245ZM25.2937 45.2579C25.6294 45.2579 25.9016 44.9857 25.9016 44.6499C25.9016 44.3142 25.6294 44.042 25.2937 44.042C24.9579 44.042 24.6858 44.3142 24.6858 44.6499C24.6858 44.9857 24.9579 45.2579 25.2937 45.2579Z" fill="#FF00A5"/>
<path d="M10.404 18.2653C10.3907 18.2529 10.3839 18.2339 10.3894 18.2138C10.7267 16.9988 11.4524 15.9454 12.4244 15.1956C13.3964 14.4459 14.6146 14 15.9372 14C16.2465 14 16.5502 14.0243 16.8463 14.0713C17.1425 14.1183 17.431 14.1879 17.7103 14.2782C17.7245 14.2828 17.7325 14.2949 17.7336 14.3075C17.7347 14.3202 17.729 14.3335 17.7158 14.3404C17.5664 14.4185 17.2042 14.6234 16.8006 14.9637C16.3971 15.304 15.9523 15.7795 15.6378 16.3989C15.6289 16.4163 15.6356 16.4334 15.6481 16.4428C15.6605 16.4522 15.6787 16.4539 15.6928 16.4406C16.3159 15.8553 16.9599 15.4644 17.5124 15.2055C18.0649 14.9465 18.5259 14.8195 18.7828 14.7621C18.8022 14.7578 18.817 14.7687 18.8228 14.7831C18.8285 14.7976 18.8252 14.8156 18.8081 14.8257C18.6348 14.9287 18.3633 15.1101 18.0668 15.3845C17.7703 15.659 17.4489 16.0265 17.1755 16.5014C17.1657 16.5185 17.1716 16.5359 17.1836 16.5458C17.1957 16.5559 17.2139 16.5584 17.2289 16.5457C17.766 16.0887 18.275 15.7877 18.6782 15.5934C19.0814 15.3992 19.3789 15.3118 19.4929 15.2822C19.5089 15.2781 19.5253 15.2779 19.5409 15.2813C19.5565 15.2848 19.5713 15.2919 19.584 15.3023C20.0363 15.673 20.4312 16.1113 20.7531 16.6017C21.075 17.0921 21.324 17.6346 21.4848 18.2138C21.4904 18.2339 21.4836 18.2529 21.4704 18.2653C21.4572 18.2776 21.4376 18.2833 21.418 18.2767C20.5573 17.987 19.6663 17.7635 18.7508 17.6124C17.8353 17.4614 16.8955 17.3827 15.9372 17.3827C14.9788 17.3827 14.039 17.4614 13.1235 17.6124C12.208 17.7635 11.317 17.987 10.4564 18.2767C10.4366 18.2833 10.4172 18.2776 10.404 18.2653ZM10.2734 34.0005C9.05337 30.2399 8.04211 25.803 7.76 20.9635C7.75848 20.9369 7.76444 20.9107 7.77649 20.8879C7.78861 20.8651 7.8068 20.8455 7.82981 20.8319C9.01746 20.1287 10.3041 19.5751 11.664 19.1973C13.0239 18.8196 14.4569 18.6176 15.9372 18.6176C17.4174 18.6176 18.8505 18.8196 20.2103 19.1973C21.5702 19.5751 22.857 20.1288 24.0446 20.832C24.0676 20.8456 24.0858 20.8652 24.0978 20.8879C24.1099 20.9107 24.1158 20.9367 24.1143 20.9634C23.8323 25.8019 22.8214 30.2379 21.6016 33.9982C20.3819 37.7584 18.9533 40.8427 17.836 42.9778C17.8265 42.996 17.8259 43.016 17.8325 43.0334C17.8392 43.0508 17.8529 43.0656 17.872 43.0732C18.324 43.2536 18.7578 43.4955 19.1686 43.7922C19.5794 44.089 19.9672 44.4405 20.3272 44.84C20.3469 44.8618 20.3436 44.8889 20.329 44.907C20.3144 44.9251 20.2884 44.9342 20.2627 44.9199C19.8183 44.674 19.3279 44.4751 18.7929 44.3238C18.2578 44.1725 17.6782 44.0688 17.0553 44.0132C16.8876 43.9982 16.7 43.9615 16.5162 43.859C16.3322 43.7564 16.152 43.588 15.9989 43.3096C15.9854 43.2851 15.9613 43.2728 15.9372 43.2728C15.913 43.2728 15.8889 43.2851 15.8754 43.3096C15.7223 43.588 15.5421 43.7564 15.3582 43.859C15.1742 43.9615 14.9866 43.9982 14.819 44.0132C14.1961 44.0688 13.6165 44.1725 13.0814 44.3238C12.5463 44.4751 12.0559 44.674 11.6116 44.9199C11.5858 44.9342 11.5598 44.9251 11.5453 44.907C11.5306 44.889 11.5274 44.8619 11.5471 44.84C11.9074 44.4401 12.2956 44.0883 12.7068 43.7914C13.1181 43.4945 13.5524 43.2525 14.0049 43.0722C14.0233 43.0648 14.0366 43.0506 14.043 43.0338C14.0494 43.017 14.0488 42.9977 14.0396 42.9801C12.9224 40.8454 11.4935 37.7611 10.2734 34.0005ZM16.7851 31.5075C16.7986 31.4989 16.8078 31.4859 16.8122 31.4712C16.8166 31.4565 16.8161 31.4403 16.8103 31.4253L16.398 30.367L15.9857 29.3087C15.977 29.2866 15.9571 29.2756 15.9372 29.2756C15.9172 29.2756 15.8973 29.2866 15.8886 29.3087L15.4764 30.367L15.0641 31.4253C15.0582 31.4403 15.0577 31.4565 15.0621 31.4712C15.0665 31.4859 15.0757 31.4989 15.0893 31.5075C15.3835 31.6943 15.5781 32.1485 15.7057 32.6248C15.8333 33.1011 15.8939 33.5996 15.9199 33.8748C15.9209 33.8853 15.9291 33.8906 15.9372 33.8906C15.9452 33.8906 15.9534 33.8853 15.9544 33.8748C15.9804 33.5996 16.041 33.1011 16.1686 32.6248C16.2962 32.1485 16.4908 31.6943 16.7851 31.5075ZM10.4397 21.5857C10.8539 27.6496 11.6648 32.2686 12.5394 35.7054C13.4139 39.1423 14.3521 41.3968 15.0205 42.7315C15.027 42.7447 15.0375 42.7548 15.0499 42.761C15.0624 42.7671 15.0768 42.7694 15.0913 42.7669C15.1317 42.7601 15.1723 42.7538 15.2129 42.748C15.2535 42.7422 15.2942 42.7368 15.335 42.732C15.3536 42.7297 15.3697 42.7204 15.3804 42.7069C15.3911 42.6933 15.3965 42.6757 15.3941 42.6571C15.1611 40.8804 14.8863 38.542 14.6398 35.8083C14.3933 33.0747 14.1751 29.9459 14.0552 26.5882C14.0544 26.5643 14.0651 26.5434 14.0819 26.53C14.0987 26.5167 14.1215 26.5108 14.1446 26.5169C14.4307 26.5926 14.7239 26.6506 15.023 26.6898C15.3222 26.7289 15.6273 26.7491 15.9372 26.7491C16.247 26.7491 16.5522 26.7289 16.8513 26.6898C17.1506 26.6506 17.4438 26.5926 17.7299 26.5169C17.753 26.5108 17.7757 26.5166 17.7924 26.53C17.8092 26.5432 17.8199 26.564 17.8191 26.588C17.6992 29.9452 17.4811 33.0737 17.2346 35.8071C16.9882 38.5405 16.7134 40.8788 16.4804 42.6557C16.4779 42.6747 16.4835 42.6927 16.4944 42.7065C16.5054 42.7202 16.5217 42.7299 16.5408 42.7321C16.5813 42.737 16.6216 42.7423 16.6619 42.7481C16.7021 42.7538 16.7423 42.7601 16.7824 42.7668C16.7971 42.7693 16.8117 42.767 16.8242 42.7608C16.8368 42.7545 16.8473 42.7444 16.854 42.7311C17.5226 41.396 18.4608 39.1411 19.3354 35.7035C20.21 32.266 21.021 27.6458 21.4349 21.5804C21.4357 21.5702 21.4288 21.5636 21.4209 21.562C21.4131 21.5604 21.4043 21.5638 21.4011 21.5735C21.0207 22.7182 20.2909 23.7033 19.3381 24.4023C18.3853 25.1013 17.2095 25.5141 15.9372 25.5141C15.6107 25.5141 15.2907 25.487 14.9791 25.4348C14.6675 25.3825 14.3644 25.3053 14.0719 25.2052C14.0533 25.1988 14.0375 25.1871 14.026 25.1721C14.0145 25.157 14.0074 25.1387 14.0059 25.119C13.9911 24.9155 13.9542 24.2542 14.0256 23.4291C14.0969 22.6039 14.2763 21.6149 14.6942 20.756C14.703 20.7379 14.6955 20.7207 14.6824 20.7118C14.6693 20.7028 14.6507 20.7022 14.6372 20.7172C14.0431 21.3816 13.6363 22.1589 13.3605 22.8644C13.0847 23.5699 12.94 24.2036 12.8701 24.5807C12.8664 24.6009 12.8496 24.6097 12.8338 24.6084C12.818 24.6071 12.803 24.5955 12.8027 24.5749C12.7975 24.1936 12.8035 23.5551 12.8716 22.8498C12.9397 22.1446 13.0699 21.3726 13.313 20.7243C13.3197 20.7063 13.3115 20.6904 13.2984 20.6826C13.2853 20.6748 13.2672 20.6751 13.2544 20.6894C12.759 21.2386 12.3906 21.8807 12.1345 22.4239C11.8783 22.9671 11.7343 23.4112 11.6877 23.5644C11.6839 23.5769 11.6739 23.5849 11.6627 23.5873C11.6516 23.5898 11.6391 23.5867 11.6305 23.577C11.3754 23.2895 11.1486 22.9763 10.9546 22.6417C10.7605 22.3072 10.5991 21.9514 10.4749 21.5786C10.4715 21.5685 10.4624 21.5649 10.4542 21.5666C10.4461 21.5682 10.439 21.575 10.4397 21.5857ZM20.8631 45.9236C19.9649 45.1651 18.6868 44.6491 16.9793 44.5012C16.9524 44.4988 16.9258 44.5046 16.9026 44.5168C16.8793 44.529 16.8595 44.5476 16.8459 44.571C16.6335 44.9381 16.4511 45.2408 16.3065 45.4749C16.1621 45.7089 16.0555 45.8744 15.9949 45.9671C15.9812 45.988 15.9592 45.9985 15.9372 45.9985C15.9151 45.9985 15.8931 45.988 15.8794 45.9671C15.8188 45.8744 15.7123 45.709 15.5678 45.475C15.4233 45.2409 15.2409 44.9383 15.0286 44.5714C15.0149 44.5478 14.995 44.5291 14.9717 44.5169C14.9484 44.5046 14.9217 44.4989 14.8946 44.5012C13.1872 44.6492 11.9093 45.1651 11.0111 45.9237C10.113 46.6823 9.59458 47.6835 9.40621 48.8021C9.40182 48.8282 9.41241 48.8518 9.43043 48.8666C9.44838 48.8813 9.4737 48.8873 9.49866 48.8782C10.3904 48.5519 11.3944 48.2917 12.4782 48.1131C13.5621 47.9345 14.7258 47.8375 15.9372 47.8375C17.1485 47.8375 18.3122 47.9345 19.3961 48.1131C20.48 48.2917 21.4839 48.5519 22.3757 48.8782C22.4007 48.8873 22.4259 48.8814 22.4439 48.8666C22.4619 48.8519 22.4725 48.8283 22.4681 48.8021C22.2797 47.6835 21.7613 46.6822 20.8631 45.9236Z" fill="white"/>
</svg>
