<svg width="24" height="261" viewBox="0 0 24 261" fill="none" xmlns="http://www.w3.org/2000/svg">
<g clip-path="url(#clip0_209_2516)">
<path d="M16.1939 249.382C16.9316 250.12 17.9507 250.576 19.0764 250.576C20.202 250.576 21.2211 250.12 21.9587 249.382C22.6964 248.645 23.1527 247.626 23.1527 246.5C23.1527 245.374 22.6964 244.355 21.9587 243.618C21.2211 242.88 20.202 242.424 19.0764 242.424C17.9507 242.424 16.9316 242.88 16.1939 243.618C15.4562 244.355 15 245.374 15 246.5C15 247.626 15.4562 248.645 16.1939 249.382ZM15 217.5C15 216.374 15.4562 215.355 16.1939 214.618C16.9316 213.88 17.9507 213.424 19.0764 213.424C20.202 213.424 21.2211 213.88 21.9587 214.618C22.6964 215.355 23.1527 216.374 23.1527 217.5C23.1527 218.626 22.6964 219.645 21.9587 220.382C21.2211 221.12 20.202 221.576 19.0764 221.576C17.9507 221.576 16.9316 221.12 16.1939 220.382C15.4562 219.645 15 218.626 15 217.5ZM15 188.5C15 187.374 15.4562 186.355 16.1939 185.618C16.9316 184.88 17.9507 184.424 19.0764 184.424C20.202 184.424 21.2211 184.88 21.9587 185.618C22.6964 186.355 23.1527 187.374 23.1527 188.5C23.1527 189.626 22.6964 190.645 21.9587 191.382C21.2211 192.12 20.202 192.576 19.0764 192.576C17.9507 192.576 16.9316 192.12 16.1939 191.382C15.4562 190.645 15 189.626 15 188.5ZM15 159.5C15 158.374 15.4562 157.355 16.1939 156.618C16.9316 155.88 17.9507 155.424 19.0764 155.424C20.202 155.424 21.2211 155.88 21.9587 156.618C22.6964 157.355 23.1527 158.374 23.1527 159.5C23.1527 160.626 22.6964 161.645 21.9587 162.382C21.2211 163.12 20.202 163.576 19.0764 163.576C17.9507 163.576 16.9316 163.12 16.1939 162.382C15.4563 161.645 15 160.626 15 159.5ZM15 130.5C15 129.374 15.4563 128.355 16.1939 127.618C16.9316 126.88 17.9507 126.424 19.0764 126.424C20.202 126.424 21.2211 126.88 21.9587 127.618C22.6964 128.355 23.1527 129.374 23.1527 130.5C23.1527 131.626 22.6964 132.645 21.9587 133.382C21.2211 134.12 20.202 134.576 19.0764 134.576C17.9507 134.576 16.9316 134.12 16.1939 133.382C15.4563 132.645 15 131.626 15 130.5ZM15 101.5C15 100.374 15.4563 99.3553 16.1939 98.6176C16.9316 97.88 17.9507 97.4236 19.0764 97.4236C20.202 97.4236 21.2211 97.88 21.9587 98.6176C22.6964 99.3553 23.1527 100.374 23.1527 101.5C23.1527 102.626 22.6964 103.645 21.9587 104.382C21.2211 105.12 20.202 105.576 19.0764 105.576C17.9507 105.576 16.9316 105.12 16.1939 104.382C15.4563 103.645 15 102.626 15 101.5ZM15 72.5C15 71.3743 15.4563 70.3553 16.1939 69.6176C16.9316 68.88 17.9507 68.4236 19.0764 68.4236C20.202 68.4236 21.2211 68.88 21.9587 69.6176C22.6964 70.3553 23.1527 71.3743 23.1527 72.5C23.1527 73.6257 22.6964 74.6447 21.9587 75.3824C21.2211 76.1201 20.202 76.5764 19.0764 76.5764C17.9507 76.5764 16.9316 76.1201 16.1939 75.3824C15.4563 74.6447 15 73.6257 15 72.5ZM15 43.5C15 42.3743 15.4563 41.3553 16.1939 40.6176C16.9316 39.88 17.9507 39.4236 19.0764 39.4236C20.202 39.4236 21.2211 39.88 21.9587 40.6176C22.6964 41.3553 23.1527 42.3743 23.1527 43.5C23.1527 44.6257 22.6964 45.6447 21.9587 46.3824C21.2211 47.1201 20.202 47.5764 19.0764 47.5764C17.9507 47.5764 16.9316 47.1201 16.1939 46.3824C15.4563 45.6447 15 44.6257 15 43.5ZM15 14.5C15 13.3743 15.4563 12.3553 16.1939 11.6176C16.9316 10.88 17.9507 10.4236 19.0764 10.4236C20.202 10.4236 21.2211 10.88 21.9587 11.6176C22.6964 12.3553 23.1527 13.3743 23.1527 14.5C23.1527 15.6257 22.6964 16.6447 21.9587 17.3824C21.2211 18.1201 20.202 18.5764 19.0764 18.5764C17.9507 18.5764 16.9316 18.1201 16.1939 17.3824C15.4563 16.6447 15 15.6257 15 14.5ZM18.5944 0.0380257L11.3675 7.25L4.14073 14.462C4.13018 14.4725 4.12494 14.4863 4.12494 14.5C4.12494 14.5137 4.13018 14.5275 4.14073 14.538L11.3675 21.75L18.5944 28.962C18.6049 28.9725 18.6101 28.9863 18.6101 29C18.6101 29.0137 18.6049 29.0275 18.5944 29.038L11.3675 36.25L4.14073 43.462C4.13018 43.4725 4.12494 43.4863 4.12494 43.5C4.12494 43.5137 4.13018 43.5275 4.14073 43.538L11.3675 50.75L18.5944 57.962C18.6049 57.9725 18.6101 57.9863 18.6101 58C18.6101 58.0137 18.6049 58.0275 18.5944 58.038L11.3675 65.25L4.14073 72.462C4.13018 72.4725 4.12494 72.4863 4.12494 72.5C4.12494 72.5137 4.13018 72.5275 4.14073 72.538L11.3675 79.75L18.5944 86.962C18.6049 86.9725 18.6101 86.9863 18.6101 87C18.6101 87.0137 18.6049 87.0275 18.5944 87.038L11.3675 94.25L4.14073 101.462C4.13018 101.472 4.12494 101.486 4.12494 101.5C4.12494 101.514 4.13017 101.528 4.14073 101.538L11.3675 108.75L18.5944 115.962C18.6049 115.972 18.6101 115.986 18.6101 116C18.6101 116.014 18.6049 116.028 18.5944 116.038L11.3675 123.25L4.14073 130.462C4.13018 130.472 4.12494 130.486 4.12494 130.5C4.12494 130.514 4.13017 130.528 4.14073 130.538L11.3675 137.75L18.5944 144.962C18.6049 144.972 18.6101 144.986 18.6101 145C18.6101 145.014 18.6049 145.028 18.5944 145.038L11.3675 152.25L4.14072 159.462C4.13017 159.472 4.12493 159.486 4.12493 159.5C4.12493 159.514 4.13017 159.528 4.14072 159.538L11.3675 166.75L18.5944 173.962C18.6049 173.972 18.6101 173.986 18.6101 174C18.6101 174.014 18.6049 174.028 18.5944 174.038L11.3675 181.25L4.14072 188.462C4.13017 188.472 4.12493 188.486 4.12493 188.5C4.12493 188.514 4.13017 188.528 4.14072 188.538L11.3675 195.75L18.5944 202.962C18.6049 202.972 18.6101 202.986 18.6101 203C18.6101 203.014 18.6049 203.028 18.5944 203.038L11.3675 210.25L4.14072 217.462C4.13017 217.472 4.12493 217.486 4.12493 217.5C4.12493 217.514 4.13017 217.528 4.14072 217.538L11.3675 224.75L18.5944 231.962C18.6049 231.972 18.6101 231.986 18.6101 232C18.6101 232.014 18.6049 232.028 18.5944 232.038L11.3675 239.25L4.14072 246.462C4.13017 246.472 4.12493 246.486 4.12493 246.5C4.12493 246.514 4.13017 246.528 4.14072 246.538L11.3675 253.75L18.5944 260.962C18.6049 260.972 18.6101 260.986 18.6101 261H0.5L0.500011 0L18.6101 7.91619e-07C18.6101 0.0137337 18.6049 0.0275582 18.5944 0.0380257Z" fill="#EA0038"/>
</g>
<defs>
<clipPath id="clip0_209_2516">
<rect width="24" height="261" fill="white"/>
</clipPath>
</defs>
</svg>
