<svg width="24" height="261" viewBox="0 0 24 261" fill="none" xmlns="http://www.w3.org/2000/svg">
<path d="M7.45881 249.382C6.72114 250.12 5.70203 250.576 4.57637 250.576C3.4507 250.576 2.43167 250.12 1.694 249.382C0.956323 248.645 0.50001 247.626 0.50001 246.5C0.50001 245.374 0.956321 244.355 1.694 243.618C2.43167 242.88 3.4507 242.424 4.57637 242.424C5.70203 242.424 6.72114 242.88 7.45881 243.618C8.19648 244.355 8.65273 245.374 8.65273 246.5C8.65273 247.626 8.19649 248.645 7.45881 249.382ZM8.65272 217.5C8.65272 216.374 8.19648 215.355 7.45881 214.618C6.72114 213.88 5.70203 213.424 4.57637 213.424C3.4507 213.424 2.43167 213.88 1.69399 214.618C0.956321 215.355 0.500009 216.374 0.500009 217.5C0.500009 218.626 0.95632 219.645 1.69399 220.382C2.43167 221.12 3.4507 221.576 4.57637 221.576C5.70203 221.576 6.72114 221.12 7.45881 220.382C8.19648 219.645 8.65272 218.626 8.65272 217.5ZM8.65272 188.5C8.65272 187.374 8.19648 186.355 7.45881 185.618C6.72114 184.88 5.70203 184.424 4.57636 184.424C3.4507 184.424 2.43167 184.88 1.69399 185.618C0.95632 186.355 0.500007 187.374 0.500007 188.5C0.500007 189.626 0.956319 190.645 1.69399 191.382C2.43167 192.12 3.4507 192.576 4.57637 192.576C5.70203 192.576 6.72113 192.12 7.45881 191.382C8.19648 190.645 8.65272 189.626 8.65272 188.5ZM8.65272 159.5C8.65272 158.374 8.19648 157.355 7.45881 156.618C6.72113 155.88 5.70203 155.424 4.57636 155.424C3.4507 155.424 2.43167 155.88 1.69399 156.618C0.956319 157.355 0.500006 158.374 0.500006 159.5C0.500006 160.626 0.956317 161.645 1.69399 162.382C2.43167 163.12 3.4507 163.576 4.57636 163.576C5.70203 163.576 6.72113 163.12 7.45881 162.382C8.19648 161.645 8.65272 160.626 8.65272 159.5ZM8.65272 130.5C8.65272 129.374 8.19648 128.355 7.45881 127.618C6.72113 126.88 5.70203 126.424 4.57636 126.424C3.4507 126.424 2.43166 126.88 1.69399 127.618C0.956317 128.355 0.500005 129.374 0.500005 130.5C0.500005 131.626 0.956316 132.645 1.69399 133.382C2.43166 134.12 3.4507 134.576 4.57636 134.576C5.70203 134.576 6.72113 134.12 7.45881 133.382C8.19648 132.645 8.65272 131.626 8.65272 130.5ZM8.65272 101.5C8.65272 100.374 8.19648 99.3553 7.4588 98.6176C6.72113 97.88 5.70202 97.4236 4.57636 97.4236C3.4507 97.4236 2.43166 97.88 1.69399 98.6176C0.956316 99.3553 0.500003 100.374 0.500004 101.5C0.500004 102.626 0.956315 103.645 1.69399 104.382C2.43166 105.12 3.4507 105.576 4.57636 105.576C5.70202 105.576 6.72113 105.12 7.4588 104.382C8.19648 103.645 8.65272 102.626 8.65272 101.5ZM8.65272 72.5C8.65272 71.3743 8.19648 70.3553 7.4588 69.6176C6.72113 68.88 5.70202 68.4237 4.57636 68.4237C3.4507 68.4237 2.43166 68.88 1.69399 69.6176C0.956315 70.3553 0.500002 71.3743 0.500002 72.5C0.500002 73.6257 0.956314 74.6447 1.69399 75.3824C2.43166 76.12 3.4507 76.5764 4.57636 76.5764C5.70202 76.5764 6.72113 76.12 7.4588 75.3824C8.19648 74.6447 8.65272 73.6257 8.65272 72.5ZM8.65272 43.5C8.65272 42.3743 8.19648 41.3553 7.4588 40.6176C6.72113 39.88 5.70202 39.4237 4.57636 39.4237C3.4507 39.4237 2.43166 39.88 1.69399 40.6176C0.956314 41.3553 0.500001 42.3743 0.500001 43.5C0.500001 44.6257 0.956312 45.6447 1.69399 46.3824C2.43166 47.12 3.4507 47.5764 4.57636 47.5764C5.70202 47.5764 6.72113 47.1201 7.4588 46.3824C8.19648 45.6447 8.65272 44.6257 8.65272 43.5ZM8.65272 14.5C8.65271 13.3743 8.19648 12.3553 7.4588 11.6176C6.72113 10.88 5.70202 10.4237 4.57636 10.4237C3.45069 10.4237 2.43166 10.88 1.69399 11.6176C0.956312 12.3553 0.5 13.3743 0.5 14.5C0.5 15.6257 0.956311 16.6447 1.69399 17.3824C2.43166 18.1201 3.45069 18.5764 4.57636 18.5764C5.70202 18.5764 6.72113 18.1201 7.4588 17.3824C8.19647 16.6447 8.65272 15.6257 8.65272 14.5ZM5.0583 0.0380273L12.2852 7.25001L19.512 14.462C19.5226 14.4725 19.5278 14.4863 19.5278 14.5C19.5278 14.5137 19.5226 14.5275 19.512 14.538L12.2852 21.75L5.0583 28.962C5.04782 28.9725 5.04258 28.9863 5.04258 29C5.04258 29.0137 5.04782 29.0275 5.0583 29.038L12.2852 36.25L19.512 43.462C19.5226 43.4725 19.5278 43.4863 19.5278 43.5C19.5278 43.5137 19.5226 43.5275 19.512 43.538L12.2852 50.75L5.0583 57.962C5.04782 57.9725 5.04258 57.9863 5.04258 58C5.04258 58.0137 5.04782 58.0275 5.0583 58.038L12.2852 65.25L19.512 72.462C19.5226 72.4725 19.5278 72.4863 19.5278 72.5C19.5278 72.5137 19.5226 72.5275 19.512 72.538L12.2852 79.75L5.0583 86.962C5.04782 86.9725 5.04258 86.9863 5.04258 87C5.04258 87.0137 5.04782 87.0275 5.0583 87.038L12.2852 94.25L19.512 101.462C19.5226 101.472 19.5278 101.486 19.5278 101.5C19.5278 101.514 19.5226 101.528 19.512 101.538L12.2852 108.75L5.0583 115.962C5.04782 115.972 5.04259 115.986 5.04259 116C5.04259 116.014 5.04782 116.028 5.0583 116.038L12.2852 123.25L19.512 130.462C19.5226 130.472 19.5278 130.486 19.5278 130.5C19.5278 130.514 19.5226 130.528 19.512 130.538L12.2852 137.75L5.05831 144.962C5.04783 144.972 5.04259 144.986 5.04259 145C5.04259 145.014 5.04783 145.028 5.05831 145.038L12.2852 152.25L19.512 159.462C19.5226 159.472 19.5278 159.486 19.5278 159.5C19.5278 159.514 19.5226 159.528 19.512 159.538L12.2852 166.75L5.05831 173.962C5.04783 173.972 5.04259 173.986 5.04259 174C5.04259 174.014 5.04783 174.028 5.05831 174.038L12.2852 181.25L19.512 188.462C19.5226 188.472 19.5278 188.486 19.5278 188.5C19.5278 188.514 19.5226 188.528 19.512 188.538L12.2852 195.75L5.05831 202.962C5.04783 202.972 5.04259 202.986 5.04259 203C5.04259 203.014 5.04783 203.028 5.05831 203.038L12.2852 210.25L19.512 217.462C19.5226 217.472 19.5278 217.486 19.5278 217.5C19.5278 217.514 19.5226 217.528 19.512 217.538L12.2852 224.75L5.05831 231.962C5.04783 231.972 5.04259 231.986 5.04259 232C5.04259 232.014 5.04783 232.028 5.05831 232.038L12.2852 239.25L19.512 246.462C19.5226 246.472 19.5278 246.486 19.5278 246.5C19.5278 246.514 19.5226 246.528 19.512 246.538L12.2852 253.75L5.05831 260.962C5.04783 260.972 5.04259 260.986 5.04259 261L23.1527 261L23.1527 6.52e-06L5.04258 7.31162e-06C5.04258 0.0137432 5.04782 0.0275482 5.0583 0.0380273Z" fill="#FF00A5"/>
</svg>
